<?xml version="1.0" encoding="UTF-8"?>
<svg id="Capa_14" data-name="Capa 14" xmlns="http://www.w3.org/2000/svg" width="516.287" height="516.337" viewBox="0 0 516.287 516.337">
  <rect x="11.462" y="94.981" width="495.632" height="308.457" rx="4.14" ry="4.14" fill="#f9efef" stroke="#891616" stroke-miterlimit="10" stroke-width="18.385"/>
  <path d="M133.568,228.786c-27.166,0-49.267-22.101-49.267-49.267s22.101-49.266,49.267-49.266,49.267,22.101,49.267,49.266-22.101,49.267-49.267,49.267Z" fill="#891616" stroke="#891616" stroke-miterlimit="10" stroke-width="9.192"/>
  <path d="M184.266,365.249h-106.739c-9.02,0-16.332-7.312-16.332-16.332v-33.657c0-23.351,11.613-45.039,31.063-58.016,11.45-7.641,24.814-11.68,38.644-11.68,16.896,0,33.189,6.12,45.878,17.233,15.136,13.23,23.818,32.353,23.818,52.463v33.657c0,9.02-7.312,16.332-16.332,16.332Z" fill="#891616" stroke="#891616" stroke-miterlimit="10" stroke-width="9.192"/>
  <rect x="198.186" y="137.202" width="8.97" height="26.401" rx=".483" ry=".483" transform="translate(-45.035 102.046) rotate(-25.533)" fill="#891616" stroke="#891616" stroke-miterlimit="10" stroke-width="9.192"/>
  <rect x="219.596" y="114.357" width="8.97" height="56.297" rx=".483" ry=".483" transform="translate(267.007 404.57) rotate(-131.757)" fill="#891616" stroke="#891616" stroke-miterlimit="10" stroke-width="9.192"/>
  <rect x="230.336" y="185.732" width="236.01" height="9.135" rx=".492" ry=".492" fill="#891616" stroke="#891616" stroke-miterlimit="10" stroke-width="9.192"/>
  <rect x="230.336" y="244.642" width="236.01" height="9.135" rx=".492" ry=".492" fill="#891616" stroke="#891616" stroke-miterlimit="10" stroke-width="9.192"/>
  <rect x="230.336" y="309.035" width="236.01" height="9.135" rx=".492" ry=".492" fill="#891616" stroke="#891616" stroke-miterlimit="10" stroke-width="9.192"/>
</svg>