<?xml version="1.0" encoding="UTF-8"?>
<svg id="Capa_6" data-name="Capa 6" xmlns="http://www.w3.org/2000/svg" width="514.124" height="514.574" viewBox="0 0 514.124 514.574">
  <path d="M254.86,333.702,467.921,482.409V209.074H47.561v273.335" fill="#f4de82" stroke="#f4de82" stroke-miterlimit="10" stroke-width="18.14"/>
  <path d="M506.558,512H5.569v-5.389c0-15.076,19.234-27.342,42.875-27.342h415.238c23.642,0,42.876,12.266,42.876,27.342v5.389Z" fill="#d13f18" stroke="#d13f18" stroke-miterlimit="10" stroke-width="3.179"/>
  <path d="M124.024,140.269c-13.338.425-20.599-2.685-23.529-9.491-10.271-23.907,61.858-63.14,84.208-74.594,9.829-5.042,20.082-9.914,30.473-14.479l.21-.092c1.105-.492,2.218-.973,3.338-1.455l.79-.341c5.936-2.552,11.759-5.117,17.466-7.63,22.961-10.111,44.648-19.663,63.702-23.904,1.009-.224,2.009-.433,3-.626,1.171-.232,1.865-.245,2.155-.255l7.673-.099,1.226,7.589c.753,4.81-1.815,7.464-4.498,8.978l.012,2.874,49.141-19.961,3.992,2.951c3.269,2.417,4.575,5.294,5.094,7.28,2.886,11.084-4.417,33.441-25.633,46.609h-.001c-22.333,13.856-54.644,28.778-93.441,43.153-35.623,13.205-69.262,23.506-94.72,29.006-12.619,2.725-22.717,4.233-30.659,4.486ZM118.902,122.638c13.864.977,57.527-7.684,124.35-32.455,37.707-13.971,68.918-28.354,90.261-41.597,9.09-5.643,13.873-13.03,16.145-18.747l-38.333,15.571c-4.204,1.702-8.948,1.216-12.706-1.304-3.759-2.519-6.017-6.725-6.037-11.25l-.019-4.018c-14.666,4.668-31.185,11.942-48.45,19.546-5.755,2.534-11.625,5.12-17.597,7.686l-.786.339c-1.123.484-2.237.965-3.344,1.46l-.29.126c-10,4.398-19.864,9.086-29.319,13.936-43.688,22.391-67.337,41.925-73.875,50.707Z" fill="#d13f18" stroke-width="0"/>
  <path d="M189.414,74.642l-68.272-39.181c-3.93-2.182-6.66-6.296-7.196-10.945-.556-4.825,1.275-9.668,4.898-12.953,10.606-9.616,24.971-13.573,38.437-10.585l121.187,28.39-89.054,45.274ZM133.752,22.294l56.171,32.236,37.338-18.983-73.914-17.316c-6.587-1.456-13.706.048-19.596,4.063ZM129.843,20.051l.081.046c-.026-.016-.054-.031-.081-.046Z" fill="#d13f18" stroke-width="0"/>
  <path d="M115.234,117.642l-19.051-29.424c-4.972-7.677-3.167-18.035,4.109-23.577,6.796-5.176,15.839-6.178,23.603-2.611l40.119,18.441-48.78,37.171ZM114.096,77.623c-1.094.035-2.172.405-3.078,1.095l8.663,13.286,10.177-7.755-13.353-6.138c-.769-.354-1.594-.514-2.409-.488Z" fill="#d13f18" stroke-width="0"/>
  <path d="M299.083,155.598c-.786.025-1.576.023-2.366-.008-9.219-.366-17.969-4.577-24.004-11.557l-31.765-36.736,72-33.035,13.911,52.258c1.848,6.944-.182,14.397-5.3,19.446h-.001c-6.004,5.925-14.087,9.364-22.474,9.632ZM269.753,113.552l16.346,18.904c2.887,3.339,6.907,5.274,11.318,5.449,4.409.169,8.568-1.436,11.713-4.536.603-.597.845-1.478.626-2.298l-8.509-31.969-31.494,14.449Z" fill="#d13f18" stroke-width="0"/>
  <path d="M306.728,25.093l-3.584-17.33c44.835-9.276,58.169-1.554,62.129,3.872l-14.299,10.43c.618.845,1.085,1.167,1.089,1.17-.084-.056-8.914-5.673-45.335,1.858Z" fill="#d13f18" stroke-width="0"/>
  <path d="M340.529,16.624c-.045.001-.092.009-.143.026l-34.999,7.701c-.212.074,1.369,4.285,1.443,4.499l.915,2.628c.089.251.367.392.612.295l33.26-11.588c.249-.087.382-.361.295-.61l-.917-2.629c-.057-.164-.176-.242-.244-.273-.045-.023-.124-.051-.222-.048Z" fill="#d13f18" stroke-width="0"/>
  <path d="M7.542,168.692h499.03c.653,0,1.184.53,1.184,1.184v21.216c0,.653-.53,1.184-1.184,1.184H7.775c-.782,0-1.417-.635-1.417-1.417v-20.984c0-.653.53-1.184,1.184-1.184Z" fill="#d13f18" stroke="#d13f18" stroke-miterlimit="10" stroke-width="12.718"/>
  <rect x="87.082" y="218.17" width="55.49" height="52.161" rx=".755" ry=".755" fill="#d13f18" stroke="#fff" stroke-miterlimit="10" stroke-width="9.07"/>
  <rect x="185.854" y="218.725" width="55.49" height="52.161" rx=".755" ry=".755" fill="#d13f18" stroke="#fff" stroke-miterlimit="10" stroke-width="9.07"/>
  <rect x="299.054" y="219.62" width="55.49" height="52.161" rx=".755" ry=".755" fill="#d13f18" stroke="#fff" stroke-miterlimit="10" stroke-width="9.07"/>
  <rect x="388.949" y="219.62" width="55.49" height="52.161" rx=".755" ry=".755" fill="#d13f18" stroke="#fff" stroke-miterlimit="10" stroke-width="9.07"/>
  <rect x="87.082" y="299.186" width="55.49" height="52.161" rx=".755" ry=".755" fill="#d13f18" stroke="#fff" stroke-miterlimit="10" stroke-width="9.07"/>
  <rect x="185.854" y="299.741" width="55.49" height="52.161" rx=".755" ry=".755" fill="#d13f18" stroke="#fff" stroke-miterlimit="10" stroke-width="9.07"/>
  <rect x="299.054" y="300.636" width="55.49" height="52.161" rx=".755" ry=".755" fill="#d13f18" stroke="#fff" stroke-miterlimit="10" stroke-width="9.07"/>
  <rect x="388.949" y="300.636" width="55.49" height="52.161" rx=".755" ry=".755" fill="#d13f18" stroke="#fff" stroke-miterlimit="10" stroke-width="9.07"/>
  <path d="M228.796,367.965h66.159c2.262,0,4.099,1.837,4.099,4.099v99.113h-74.357v-99.113c0-2.262,1.837-4.099,4.099-4.099Z" fill="#d13f18" stroke="#fff" stroke-miterlimit="10" stroke-width="9.07"/>
  <line x1="476.404" y1="192.275" x2="476.404" y2="482.409" fill="#d13f18" stroke="#d13f18" stroke-miterlimit="10" stroke-width="9.07"/>
  <line x1="38.7" y1="191.885" x2="38.7" y2="482.019" fill="#d13f18" stroke="#d13f18" stroke-miterlimit="10" stroke-width="9.07"/>
</svg>