<?xml version="1.0" encoding="UTF-8"?>
<svg id="Capa_20" data-name="Capa 20" xmlns="http://www.w3.org/2000/svg" width="516.287" height="516.974" viewBox="0 0 516.287 516.974">
  <path d="M497.668,376.564l-107.956-10.151c-2.312-.217-4.011-2.268-3.793-4.58l.095-1.013c3.838-40.816-10.444-80.36-42.442-105.985-.257-.206-.539-.384-.835-.529l-1.535-.751c-2.343-1.147-3.088-4.128-1.559-6.242h0c19.286-26.668,51.613-41.322,84.349-38.241,51.186,4.813,88.913,50.372,84.1,101.558l-5.844,62.141c-.217,2.312-2.268,4.011-4.581,3.793Z" fill="#006837" stroke="#006837" stroke-miterlimit="10" stroke-width="7.663"/>
  <path d="M341.088,424.054h-160.574c-13.569,0-24.57-11-24.57-24.57v-50.633c0-35.129,17.469-67.755,46.73-87.277,17.225-11.495,37.328-17.571,58.135-17.571,25.418,0,49.928,9.207,69.017,25.925,22.77,19.903,35.831,48.67,35.831,78.923v50.633c0,13.569-11,24.57-24.57,24.57Z" fill="#006837" stroke="#006837" stroke-miterlimit="10" stroke-width="7.663"/>
  <path d="M420.267,195.479c-33.857,0-61.4-27.543-61.4-61.4s27.543-61.398,61.4-61.398,61.4,27.543,61.4,61.398-27.543,61.4-61.4,61.4Z" fill="#006837" stroke="#006837" stroke-miterlimit="10" stroke-width="7.663"/>
  <path d="M13.685,367.262l-3.704-62.305c-3.051-51.321,36.22-95.556,87.541-98.607,32.822-1.954,64.626,13.803,82.985,41.118h0c1.455,2.165.609,5.119-1.772,6.185l-1.56.698c-.301.135-.589.303-.853.5-32.859,24.51-48.492,63.54-46.06,104.464l.06,1.016c.138,2.318-1.63,4.309-3.949,4.447l-108.241,6.434c-2.319.138-4.31-1.63-4.448-3.948Z" fill="#006837" stroke="#006837" stroke-miterlimit="10" stroke-width="7.663"/>
  <path d="M42.46,129.418c1.164-33.835,29.637-60.415,63.474-59.251,33.837,1.164,60.416,29.637,59.253,63.473-1.164,33.837-29.637,60.416-63.474,59.253-33.837-1.164-60.416-29.637-59.253-63.474Z" fill="#006837" stroke="#006837" stroke-miterlimit="10" stroke-width="7.663"/>
  <path d="M264.82,232.593c-40.868,0-74.115-33.248-74.115-74.115s33.248-74.114,74.115-74.114,74.115,33.248,74.115,74.114-33.248,74.115-74.115,74.115Z" fill="#006837" stroke="#006837" stroke-miterlimit="10" stroke-width="7.663"/>
</svg>