<?xml version="1.0" encoding="UTF-8"?>
<svg id="Capa_9" data-name="Capa 9" xmlns="http://www.w3.org/2000/svg" width="514.437" height="516.337" viewBox="0 0 514.437 516.337">
  <path d="M345.504,78.839h-169.626l.534-3.918C182.122,33.034,218.355,1.446,260.693,1.446c22.716,0,44.077,8.851,60.148,24.922,6.244,6.229,11.449,13.343,15.468,21.14,4.45,8.618,7.365,17.842,8.665,27.417l.531,3.915Z" fill="#666" stroke="#666" stroke-miterlimit="10" stroke-width="2.891"/>
  <path d="M262.2,513.446c-23.844,0-46.744-10.101-62.824-27.714-8.467-9.277-14.643-19.997-18.361-31.861l-.158-.504-.655-4.092,3.351-.233h161.313l-1.381,4.471c-11.073,35.847-43.738,59.933-81.286,59.933Z" fill="#666" stroke="#666" stroke-miterlimit="10" stroke-width="5.782"/>
  <polygon points="233.088 157.796 177.464 202.244 177.464 157.796 233.088 157.796" fill="#18159b" stroke-width="0"/>
  <path d="M277.899,157.796l-100.435,80.234v39.624l150.017-119.858h-49.582ZM184.362,241.349l95.975-76.655h27.462l-123.437,98.593v-21.938Z" fill="red" stroke="red" stroke-miterlimit="10" stroke-width="2.593"/>
  <polygon points="307.799 164.694 184.362 263.288 184.362 241.349 280.337 164.694 307.799 164.694" fill="red" stroke="red" stroke-miterlimit="10" stroke-width="2.593"/>
  <polygon points="347.604 177.531 347.604 219.826 177.464 355.736 177.464 313.441 347.604 177.531" fill="#18159b" stroke-width="0"/>
  <polygon points="347.604 255.638 347.604 297.363 265.218 363.178 212.965 363.178 347.604 255.638" fill="red" stroke="red" stroke-miterlimit="10" stroke-width="2.593"/>
  <path d="M347.611,363.188h-37.557l37.557-30.011v30.011Z" fill="#18159b" stroke-width="0"/>
  <path d="M342.868,142.859h-164.352c-17.378,0-31.515-9.461-31.515-21.089v-6.904c0-11.628,14.137-21.089,31.515-21.089h164.352c17.378,0,31.515,9.461,31.515,21.089v6.904c0,11.628-14.137,21.089-31.515,21.089Z" fill="#666" stroke="#666" stroke-miterlimit="10" stroke-width="4.337"/>
  <path d="M348.494,432.005h-167.542c-18.216,0-33.037-10.272-33.037-22.898v-5.994c0-12.626,14.82-22.898,33.037-22.898h167.542c18.216,0,33.037,10.272,33.037,22.898v5.994c0,12.626-14.82,22.898-33.037,22.898Z" fill="#666" stroke="#666" stroke-miterlimit="10" stroke-width="5.782"/>
</svg>