<?xml version="1.0" encoding="UTF-8"?>
<svg id="Capa_15" data-name="Capa 15" xmlns="http://www.w3.org/2000/svg" width="516.287" height="516.337" viewBox="0 0 516.287 516.337">
  <path d="M306.885,198.183c-5.307-4.948-12.334-7.96-20.079-7.96-11.259,0-21.298,6.239-26.318,16.35-5.307,10.542-3.657,23.235,4.374,33.848l.43.573.574.43c6.526,5.02,13.84,7.53,21.012,7.53,4.446,0,8.82-.932,12.908-2.94,10.112-5.02,16.422-15.131,16.422-26.39,0-8.462-3.586-16.063-9.323-21.442ZM295.053,236.405c-6.813,3.442-14.844,2.295-22.159-3.012-5.235-7.243-6.311-15.275-2.868-22.087,1.721-3.442,4.303-6.167,7.53-7.96,2.725-1.577,5.952-2.438,9.251-2.438,10.327,0,18.717,8.39,18.717,18.717,0,2.582-.502,5.02-1.434,7.243-1.721,4.088-4.876,7.53-9.036,9.537Z" fill="#2a8c36" stroke-width="0"/>
  <path d="M77.187,141.127l.017.02c-.006-.007-.011-.013-.017-.02ZM305.015,199.874h2.528c0-.614-.227-1.208-.639-1.673l-1.889,1.673Z" fill="#2a8c36" stroke-width="0"/>
  <path d="M359.953,495.429c1.004,0,1.936.43,2.653,1.147.43.43.861,1.147.861,2.151-.072.932-.502,1.65-.932,2.008-.573.573-1.363.932-2.151.932h-214.132c-1.004,0-2.008-.43-2.725-1.148-.358-.43-.861-1.147-.861-2.079.072-.789.358-1.578.932-2.08.43-.43,1.147-.932,2.223-.932h99.967l5.378-.072v-141.058c0-1.219-.072-2.438-.215-3.586l7.53.072c-.717,3.801-1.075,7.601-1.075,11.474v127.791l.072,5.378h102.476Z" fill="#2a8c36" stroke-width="0"/>
  <path d="M259.556,249.744c-.144-.717-.358-1.434-.574-2.151v-.144c-.287-.789-.573-1.649-.932-2.438-1.291-2.94-3.012-5.593-5.163-8.032-.502-.574-1.076-1.219-1.721-1.793-1.219-1.147-2.438-2.151-3.801-3.084-.717-.502-1.506-1.004-2.295-1.434-1.434-.789-2.94-1.434-4.518-1.936v-.072c-1.291-.43-2.582-.789-3.944-1.076-1.865-.287-3.729-.502-5.665-.502-.717,0-1.363,0-2.079.072-1.363.072-2.797.287-4.088.574-.646.144-1.291.287-1.936.502-.072,0-.144.072-.144.072-.573.143-1.219.287-1.865.573-.645.215-1.291.502-2.008.789-.789.358-1.578.789-2.367,1.219-.717.43-1.363.861-2.008,1.291-.215.144-.359.215-.502.358-1.363.861-2.653,1.936-3.801,3.227-.573.574-1.147,1.219-1.721,1.793-1.147,1.434-2.223,2.94-3.084,4.59-.287.43-.502.789-.717,1.219-.144.358-.359.717-.43,1.076-.144.071-.144.215-.144.287-.358.789-.717,1.506-.932,2.295-.358.861-.574,1.793-.789,2.725-.287,1.075-.502,2.151-.574,3.298-.144,1.004-.215,2.08-.215,3.155,0,1.865.144,3.729.502,5.45.072.43.144.861.287,1.219,1.004,4.948,3.227,9.825,6.669,14.342l.43.574.574.43c2.624,2.03,5.437,3.517,8.286,4.724,1.243.587,2.515,1.109,3.833,1.514.645.215,1.219.358,1.864.502.574.144,1.076.287,1.65.358.861.215,1.793.287,2.653.359.861.071,1.793.143,2.653.143h.287c1.076,0,2.08-.072,3.084-.215,1.363-.144,2.725-.358,4.016-.717.861-.215,1.65-.502,2.51-.789s1.793-.645,2.653-1.076c.287-.143.574-.287.861-.43,1.076-.573,2.079-1.147,3.012-1.793.215-.143.43-.287.646-.43.861-.573,1.649-1.219,2.438-1.936.144-.215.359-.358.502-.502.932-.861,1.793-1.721,2.582-2.725,1.291-1.578,2.438-3.227,3.371-4.948.43-.789.789-1.578,1.147-2.367,1.434-3.586,2.295-7.458,2.295-11.474,0-2.295-.287-4.518-.789-6.669ZM248.297,263.44c-.215.646-.574,1.291-.932,1.936-.215.502-.573,1.004-.932,1.506-.645,1.004-1.434,1.936-2.295,2.797-.287.358-.717.717-1.147,1.076-1.434,1.219-3.012,2.223-4.805,2.94-.502.215-1.004.43-1.578.574-.502.215-.932.358-1.434.43-.645.215-1.363.287-2.079.358-.645.072-1.363.144-2.008.144h-.144c-1.936,0-3.801-.287-5.594-.861-.573-.144-1.219-.358-1.793-.646-2.223-.789-4.374-1.936-6.526-3.514-3.442-4.733-5.092-9.753-4.805-14.629,0-.574.071-1.219.143-1.793.072-.789.287-1.65.574-2.438.072-.43.215-.789.358-1.219.215-.574.43-1.219.789-1.793.932-2.008,2.295-3.801,3.873-5.378.717-.717,1.434-1.363,2.295-1.865.43-.358.932-.717,1.506-.932.717-.43,1.506-.789,2.367-1.147.574-.215,1.148-.43,1.793-.646,1.578-.43,3.227-.645,4.948-.645.646,0,1.291,0,2.008.071.861.144,1.721.287,2.582.502.358.072.717.144,1.004.287.645.143,1.219.358,1.721.645,1.147.43,2.223,1.004,3.227,1.721.43.287.932.717,1.434,1.076.43.358.861.789,1.291,1.219,1.363,1.291,2.438,2.725,3.227,4.303.646,1.004,1.076,2.151,1.434,3.298.574,1.793.861,3.657.861,5.594,0,.932-.072,1.793-.215,2.653-.072.717-.215,1.434-.43,2.079-.144.717-.43,1.506-.717,2.223v.072Z" fill="#10ff32" stroke-width="0"/>
  <path d="M243.065,242.082c-1.315-1.483-2.04-3.397-2.04-5.387h8.115l-6.075,5.387Z" fill="#10ff32" stroke-width="0"/>
  <path d="M259.556,249.744c-.144-.717-.358-1.434-.574-2.151v-.072c-.287-.861-.573-1.721-.932-2.51-1.291-2.94-3.012-5.593-5.163-8.032-.502-.574-1.076-1.219-1.721-1.793-1.219-1.147-2.438-2.151-3.801-3.084-.717-.502-1.506-1.004-2.295-1.434-1.434-.789-2.94-1.434-4.518-1.936v-.072c-1.291-.43-2.582-.789-3.944-1.076-1.793-.358-3.657-.574-5.593-.574-.502,0-1.076.072-1.578.072-.215,0-.358,0-.573.072-1.363.072-2.797.287-4.088.574-.646.144-1.291.287-1.936.502-.072,0-.144.072-.144.072-.573.143-1.219.287-1.865.573-.645.215-1.291.502-2.008.789-.789.358-1.578.789-2.367,1.219-.717.43-1.363.861-2.008,1.291-.215.144-.359.215-.502.358-1.363,1.004-2.653,2.079-3.801,3.227-.573.574-1.147,1.219-1.721,1.793-1.147,1.434-2.223,2.94-3.084,4.59-.43.717-.861,1.506-1.147,2.295-.144.071-.144.215-.144.287-.358.789-.717,1.506-.932,2.295-.358.861-.574,1.793-.789,2.725-.287,1.075-.502,2.151-.574,3.298-.144.717-.215,1.363-.215,2.08v1.075c0,1.865.144,3.729.502,5.45.072.43.144.861.287,1.219,1.147,5.235,3.657,9.968,7.386,13.912,3.514,3.657,7.745,6.239,12.406,7.673.645.215,1.219.358,1.864.502.574.144,1.076.287,1.65.358.861.215,1.793.287,2.653.359.861.071,1.793.143,2.653.143h.287c1.076,0,2.08-.072,3.084-.215,1.363-.144,2.725-.358,4.016-.717.861-.215,1.65-.502,2.51-.789s1.793-.645,2.653-1.076c.287-.143.574-.287.861-.43,1.076-.573,2.079-1.147,3.012-1.793.215-.143.43-.287.646-.43.861-.573,1.649-1.219,2.438-1.936.144-.215.359-.358.502-.502.932-.861,1.793-1.793,2.582-2.725,1.291-1.578,2.438-3.227,3.371-4.948.43-.789.789-1.578,1.147-2.367,1.434-3.586,2.295-7.458,2.295-11.474,0-2.295-.287-4.518-.789-6.669ZM248.297,263.44c-.287.646-.574,1.291-.932,1.936-.287.502-.573,1.004-.932,1.506-.645,1.004-1.434,1.936-2.295,2.797-.358.358-.789.717-1.147,1.076-1.434,1.219-3.012,2.223-4.805,2.94-.502.215-1.004.43-1.578.574-.502.215-.932.358-1.434.43-.717.144-1.363.287-2.079.358-.645.072-1.363.144-2.008.144h-.144c-1.936,0-3.801-.287-5.594-.861-.645-.215-1.219-.43-1.793-.646-2.295-1.004-4.374-2.438-6.167-4.303-3.586-3.729-5.378-8.606-5.163-13.84,0-.574.071-1.219.143-1.793.144-.861.287-1.65.574-2.438.072-.43.215-.789.358-1.219.215-.574.502-1.219.789-1.793.932-2.008,2.295-3.801,3.873-5.378.717-.717,1.434-1.363,2.295-1.865.502-.358,1.004-.645,1.506-.932.717-.43,1.506-.789,2.367-1.147.574-.215,1.148-.43,1.793-.646,1.291-.358,2.653-.574,4.088-.645h.861c.646,0,1.291,0,2.008.071.861.144,1.721.287,2.582.502.358.072.645.144,1.004.287.573.143,1.147.358,1.721.645,1.147.43,2.223,1.004,3.227,1.721.502.287,1.004.646,1.434,1.076.359.287.646.574,1.004.861.144.144.215.215.287.358,1.363,1.291,2.438,2.725,3.227,4.303.646,1.004,1.076,2.151,1.434,3.298.574,1.793.861,3.657.861,5.594,0,.861-.072,1.793-.215,2.653-.072.717-.215,1.363-.43,2.079-.144.717-.43,1.506-.717,2.223v.072Z" fill="#2a8c36" stroke-width="0"/>
  <path d="M427.003,146.622l-25.888,29.187-294.521-1.578-24.525-27.609h344.935ZM281.571,326.619l155.902-175.766c2.367-2.653,2.94-6.311,1.434-9.609-1.434-3.227-4.59-5.235-8.103-5.235H74.754c-2.94,0-5.522,1.721-6.741,4.375-1.147,2.582-.717,5.665,1.219,7.816l162.643,183.368c5.593,6.239,8.606,14.342,8.606,22.733v130.444h-94.66c-3.729,0-7.171,1.434-9.753,4.088-2.51,2.438-3.945,5.809-4.016,9.322-.072,3.657,1.291,7.1,3.872,9.825,2.653,2.725,6.454,4.303,10.327,4.303h214.132c3.657,0,7.099-1.434,9.681-4.016,2.438-2.438,3.873-5.665,4.016-9.108.143-3.729-1.148-7.243-3.801-9.968-2.653-2.796-6.454-4.446-10.327-4.446h-91.863v-122.484c0-13.123,4.805-25.817,13.482-35.641ZM260.344,343.256l-10.613-.144c-1.721-6.884-5.092-13.267-9.896-18.645l-126.93-143.137,282.76.646-122.054,137.615c-6.168,6.885-10.685,14.988-13.267,23.665Z" fill="#2a8c36" stroke-width="0"/>
  <path d="M112.905,181.33l126.93,143.137c4.805,5.378,8.175,11.761,9.896,18.645l10.613.144c2.582-8.677,7.099-16.78,13.267-23.665l122.054-137.615-282.76-.646ZM258.05,267.886c-.358.789-.717,1.578-1.147,2.367-.932,1.721-2.079,3.37-3.371,4.948-.789.932-1.649,1.865-2.582,2.725-.143.144-.358.287-.502.502-.717.645-1.577,1.291-2.438,1.936-.215.144-.43.287-.646.43-.932.646-2.008,1.291-3.012,1.793-.287.144-.574.287-.861.43-.861.431-1.721.789-2.653,1.076-.789.287-1.65.574-2.51.789-1.291.359-2.653.574-4.016.717-1.004.143-2.008.215-3.084.215h-.287c-.861,0-1.793-.072-2.653-.143-.861-.072-1.793-.144-2.653-.359-.574-.071-1.076-.215-1.65-.358-.645-.072-1.219-.287-1.864-.502-4.159-1.147-8.319-3.298-12.119-6.239l-.574-.43-.43-.574c-3.442-4.517-5.666-9.394-6.669-14.342-.144-.358-.215-.789-.287-1.219-.358-1.721-.502-3.586-.502-5.45v-1.075c0-.717.072-1.363.215-2.08.072-1.147.287-2.223.574-3.298.215-.932.43-1.865.789-2.725.215-.789.502-1.578.932-2.295,0-.072,0-.215.144-.287.071-.359.287-.717.43-1.076.215-.43.43-.789.717-1.219.861-1.65,1.936-3.155,3.084-4.59.574-.646,1.148-1.291,1.721-1.793,1.148-1.291,2.438-2.367,3.801-3.227.143-.144.287-.215.502-.358.573-.502,1.291-.932,2.008-1.291.789-.43,1.578-.861,2.367-1.219.717-.287,1.363-.574,2.008-.789.646-.287,1.219-.43,1.865-.573,0,0,.072-.072.144-.072.574-.215,1.219-.358,1.936-.502,1.291-.287,2.725-.502,4.088-.574.215-.072.358-.072.573-.072.502,0,1.076-.072,1.578-.072,1.936,0,3.801.215,5.593.574,1.363.287,2.653.646,3.944,1.076v.072c4.303.502,8.606,2.653,12.119,6.167,3.657,3.657,5.809,8.175,6.311,12.55v.144c.215.717.43,1.434.574,2.151.502,2.151.789,4.374.789,6.669,0,4.016-.861,7.888-2.295,11.474ZM299.786,246.014c-4.088,2.008-8.462,2.94-12.908,2.94-7.171,0-14.486-2.51-21.012-7.53l-.574-.43-.43-.573c-8.032-10.614-9.681-23.306-4.374-33.848,5.02-10.111,15.059-16.35,26.318-16.35,7.745,0,14.773,3.012,20.079,7.96,5.737,5.378,9.323,12.98,9.323,21.442,0,11.259-6.311,21.37-16.422,26.39Z" fill="#e9fc7c" stroke-width="0"/>
  <path d="M258.982,247.449v.144c.43,4.589-.861,9.035-4.088,12.262-1.864,1.793-4.159,3.012-6.597,3.514v.072c-5.952,1.506-13.052-.502-18.358-5.809-5.378-5.378-7.458-12.621-5.809-18.645.574-2.367,1.793-4.518,3.586-6.311,3.299-3.371,8.032-4.661,12.836-4.016v.072c4.303.502,8.606,2.653,12.119,6.167,3.657,3.657,5.809,8.175,6.311,12.55Z" fill="#2a8c36" stroke-width="0"/>
  <ellipse cx="294.718" cy="210.439" rx="16.071" ry="19.234" transform="translate(-62.482 270.033) rotate(-45)" fill="#2a8c36" stroke-width="0"/>
  <path d="M421.051,78.495l-11.761,25.458c-3.872-1.793-7.96-3.586-11.976-5.45l9.681-20.94,2.151-4.661c.789.358,1.578.717,2.367,1.076,3.227,1.577,6.454,3.084,9.538,4.518Z" fill="#2a8c36" stroke-width="0"/>
  <path d="M484.092,109.865c-.574,1.219-1.219,2.438-1.936,3.657-1.075-.717-2.151-1.506-3.299-2.223-12.693-8.462-30.836-18.717-51.991-29.258-2.079-1.076-2.016-3.795-4.167-4.87l-1.642.567-9.295-7.085-3.699-2.973c-6.167-2.868-11.581-5.029-17.461-7.54-10.112-4.374-18.057-5.234-26.95-8.533-10.112-3.729-17.183-6.938-24.928-9.161-1.578-.502-2.196-1.516-3.631-1.874.43-1.291-3.891.162-3.317-1.129,10.685-23.02,39.083-33.991,70.349-29.761.645.072,1.363.215,2.008.358h.072c8.175,1.148,16.494,3.442,24.741,6.813.072,0,.144.072.215.072,1.506.646,3.012,1.291,4.518,2.008,4.518,2.079,8.821,4.446,12.837,7.028.071,0,.143,0,.215.072,4.733,3.012,9.036,6.167,13.052,9.753h.072c24.454,21.227,35.067,50.629,24.239,74.079Z" fill="#3e8c45" stroke-width="0"/>
  <path d="M421.606,77.345l-.542,1.172c-3.906-1.806-7.911-3.737-11.947-5.602l.512-1.107,11.977,5.537Z" fill="#2a8c36" stroke-width="0"/>
  <path d="M397.29,98.496c4.036,1.866,8.102,3.666,12.007,5.472l-14.264,30.854c-4.116-1.35-8.207-2.925-12.308-4.821l14.565-31.505Z" fill="#2a8c36" stroke-width="0"/>
  <path d="M397.29,98.496c4.036,1.866,8.102,3.666,12.007,5.472l-73.817,159.672-11.977,1.634,73.787-166.778Z" fill="#2a8c36" stroke-width="0"/>
  <path d="M415.361,69.136c-2.49,2.624-53.294-20.933-52.799-22.137,2.766-6.717,7.132-13.504,13.004-19.664,8.877-9.424,19.382-15.495,29.102-17.669,9.06-2.005,17.372-.614,22.957,4.679,1.414,1.325,2.527,2.843,3.486,4.494,6.816,12.14-.72,34.342-15.75,50.296Z" fill="none" stroke="#eded62" stroke-miterlimit="10" stroke-width="9.416"/>
  <path d="M333.509,42.447c1.936-5.985,5.575-9.848,10.524-15.083,8.892-9.466,19.434-15.49,29.115-17.713,7.816-1.721,15.059-.932,20.438,2.725.861.574,1.721,1.219,2.51,1.936" fill="none" stroke="#eded62" stroke-miterlimit="10" stroke-width="9.416"/>
  <path d="M462.192,95.615c3.27-6.487,5.546-14.229,6.363-22.7,1.318-12.879-.963-24.796-5.679-33.569-4.412-8.164-10.902-13.539-18.559-14.3-1.927-.202-9.058-.446-10.934-.091" fill="none" stroke="#eded62" stroke-miterlimit="10" stroke-width="9.416"/>
  <path d="M465.154,44.432c5.522,2.079,10.255,6.741,13.697,13.123,4.661,8.749,6.956,20.724,5.665,33.561-.717,7.243-2.438,13.912-5.092,19.792-12.693-8.462-46.508-31.536-67.663-42.077" fill="none" stroke="#eded62" stroke-miterlimit="10" stroke-width="9.416"/>
  <path d="M371.552,51.972l-36.458-13.867" fill="none" stroke="#eded62" stroke-miterlimit="10" stroke-width="9.416"/>
</svg>