<?xml version="1.0" encoding="UTF-8"?>
<svg id="Capa_4" data-name="Capa 4" xmlns="http://www.w3.org/2000/svg" width="512.475" height="512.193" viewBox="0 0 512.475 512.193">
  <path d="M439.558,512H64.824c-29.331,0-53.214-24.32-53.214-54.187V76.089c0-29.867,23.884-54.187,53.214-54.187h374.735c29.331,0,53.214,24.32,53.214,54.187v381.582c.14,30.009-23.744,54.329-53.214,54.329ZM64.824,51.911c-13.129,0-23.744,10.809-23.744,24.178v381.582c0,13.369,10.615,24.178,23.744,24.178h374.735c13.129,0,23.744-10.809,23.744-24.178V76.089c0-13.369-10.615-24.178-23.744-24.178H64.824Z" fill="#676b74" stroke-width="0"/>
  <path d="M359.667,102.969c-6.285,0-11.313-5.12-11.313-11.52V11.52c0-6.4,5.028-11.52,11.313-11.52s11.313,5.12,11.313,11.52v79.787c0,6.4-5.028,11.662-11.313,11.662h0ZM143.598,102.969c-6.285,0-11.313-5.12-11.313-11.52V11.52c0-6.4,5.028-11.52,11.313-11.52s11.313,5.12,11.313,11.52v79.787c.14,6.4-5.028,11.662-11.313,11.662h0ZM265.809,360.96c-46.929,0-85.059-38.827-85.059-86.613s38.13-86.613,85.059-86.613c21.23,0,41.482,7.964,57.125,22.471,1.955,1.707,2.095,4.836.279,6.684-1.676,1.991-4.749,2.133-6.564.284-13.967-12.942-31.984-20.053-50.84-20.053-41.761,0-75.701,34.56-75.701,77.084s33.94,77.084,75.701,77.084c18.855,0,36.873-7.111,50.84-20.053,1.955-1.707,4.888-1.564,6.564.284,1.676,1.991,1.536,4.978-.279,6.684-15.643,14.791-35.895,22.756-57.125,22.756h0Z" fill="#676b74" stroke-width="0"/>
</svg>