<?xml version="1.0" encoding="UTF-8"?>
<svg id="Capa_10" data-name="Capa 10" xmlns="http://www.w3.org/2000/svg" width="514.51" height="516.337" viewBox="0 0 514.51 516.337">
  <path d="M514.51,310.231v60.18c0,33.175-25.482,61.462-59.138,65.79l-9.856,1.282-.08-9.696c-.241-34.697-29.489-62.985-65.229-62.985-35.98,0-65.309,28.527-65.309,63.465v8.495h-93.916l-.16-8.414c-.401-34.537-29.649-62.664-65.148-62.664s-64.908,28.127-65.308,62.664l-.08,8.414h-18.35c-37.583,0-68.193-29.73-68.193-66.351v-60.18c0-36.541,30.611-66.27,68.193-66.27h25.081l26.043-84.7c6.01-21.476,28.928-36.621,55.613-36.621h87.586c28.287,1.442,50.083,16.107,61.221,29.409l90.871,91.913h27.966c37.583,0,68.193,29.73,68.193,66.27Z" fill="#379b81" stroke-width="0"/>
  <path d="M415.514,263.936h-155.268c-5.441,0-9.869-4.303-9.869-9.594v-1.168c0-5.289,4.427-9.593,9.869-9.593h155.268c5.441,0,9.87,4.303,9.87,9.593v1.168c0,5.291-4.428,9.594-9.87,9.594Z" fill="#379b81" stroke-width="0"/>
  <g>
    <polygon points="414.206 252.086 311.172 252.086 311.172 151.931 326.996 163.295 414.206 252.086" fill="#9adbc8" stroke-width="0"/>
    <path d="M434.656,260.591h-132.233v-125.516l30.381,21.815.52.532,101.332,103.169ZM319.921,243.581h73.834l-72.566-73.882-1.268-.911v74.793Z" fill="#379b81" stroke-width="0"/>
  </g>
  <path d="M143.097,86.924c-7.879,0-15.092-5.154-17.16-12.903l-4.823-18.07c-2.453-9.197,3.248-18.618,12.707-21.003,4.583-1.156,9.355-.508,13.435,1.825,4.082,2.333,6.983,6.071,8.172,10.527l4.821,18.068c1.189,4.454.522,9.092-1.877,13.06-2.4,3.966-6.245,6.788-10.828,7.944h-.001c-1.485.375-2.977.554-4.445.554Z" fill="#379b81" stroke-width="0"/>
  <path d="M314.665,85.968c-3.005,0-6.048-.743-8.834-2.307-4.1-2.301-7.032-6.016-8.257-10.46-1.225-4.446-.596-9.089,1.772-13.075l9.6-16.165c4.889-8.225,15.745-11.055,24.213-6.307,8.464,4.752,11.374,15.309,6.489,23.535l-9.604,16.167c-3.279,5.521-9.25,8.61-15.38,8.612ZM324.3,52.355c-.079,0-.156.039-.199.112l-9.6,16.165c-.054.09-.011.248.081.299h.002c.105.056.244.025.309-.081l9.601-16.165c.063-.104.024-.24-.084-.301-.035-.019-.073-.028-.11-.028Z" fill="#379b81" stroke-width="0"/>
  <path d="M233.272,70.404c-4.455,0-8.685-1.601-11.983-4.55-3.484-3.116-5.511-7.365-5.709-11.963l-.798-18.651c-.197-4.598,1.46-8.995,4.665-12.382,3.207-3.387,7.578-5.357,12.31-5.548,4.699-.187,9.25,1.418,12.736,4.535,3.485,3.117,5.511,7.366,5.708,11.966l.799,18.648c.404,9.492-7.209,17.535-16.973,17.93h0c-.251.009-.504.015-.756.015Z" fill="#379b81" stroke-width="0"/>
  <circle cx="160.824" cy="422.08" r="66.887" fill="#fff" stroke="#d9dddb" stroke-miterlimit="10" stroke-width="24.04"/>
  <circle cx="378.059" cy="422.08" r="66.887" fill="#fff" stroke="#d9dddb" stroke-miterlimit="10" stroke-width="24.04"/>
  <path d="M378.059,442.678c-11.684,0-21.19-9.24-21.19-20.598s9.506-20.598,21.19-20.598,21.19,9.24,21.19,20.598-9.506,20.598-21.19,20.598ZM378.059,418.492c-2.035,0-3.691,1.61-3.691,3.588s1.656,3.588,3.691,3.588,3.691-1.61,3.691-3.588-1.656-3.588-3.691-3.588Z" fill="#379b81" stroke-width="0"/>
  <path d="M160.824,442.678c-11.684,0-21.19-9.24-21.19-20.598s9.506-20.598,21.19-20.598,21.19,9.24,21.19,20.598-9.506,20.598-21.19,20.598ZM160.824,418.492c-2.036,0-3.691,1.61-3.691,3.588s1.655,3.588,3.691,3.588,3.691-1.61,3.691-3.588-1.655-3.588-3.691-3.588Z" fill="#379b81" stroke-width="0"/>
  <path d="M157.16,151.931h137.837c1.803,0,3.264,1.461,3.264,3.264v85.051c0,1.803-1.461,3.264-3.264,3.264h-134.573c-1.803,0-27.304-1.461-27.304-3.264l24.04-88.316Z" fill="#9adbc8" stroke-width="0"/>
</svg>