<?xml version="1.0" encoding="UTF-8"?>
<svg id="Capa_13" data-name="Capa 13" xmlns="http://www.w3.org/2000/svg" width="514.51" height="516.337" viewBox="0 0 514.51 516.337">
  <g>
    <path d="M382.603,30.992h-246.737C63.36,30.992,4.345,90.006,4.345,162.596v180.107c0,72.589,59.015,131.604,131.521,131.604h246.737c72.506,0,131.521-59.015,131.521-131.604v-180.107c0-72.589-59.015-131.604-131.521-131.604ZM497.073,342.703c0,63.236-51.317,114.636-114.471,114.636h-246.737c-63.07,0-114.471-51.4-114.471-114.636v-180.107c0-5.049.331-10.015.994-14.898h473.691c.662,4.884.993,9.85.993,14.898v180.107Z" fill="#18159b" stroke-width="0"/>
    <path d="M497.073,162.596v180.107c0,63.236-51.317,114.636-114.471,114.636h-246.737c-63.07,0-114.471-51.4-114.471-114.636v-180.107c0-5.049.331-10.015.994-14.898h473.691c.662,4.884.993,9.85.993,14.898Z" fill="#e6e6ff" stroke-width="0"/>
  </g>
  <g>
    <path d="M56.837,230.136c0-31.771,21.173-54.615,49.131-54.615,24.701,0,40.038,17.247,44.651,34.645l-21.715,9.836c-2.85-12.408-10.451-20.577-23.48-20.577-15.065,0-25.514,12.255-25.514,30.712s10.449,30.561,25.379,30.561c13.164,0,20.765-8.169,23.616-20.575l21.715,9.833c-4.886,18.005-20.358,34.647-44.923,34.647-27.686,0-48.859-22.846-48.859-54.467Z" fill="#18159b" stroke-width="0"/>
    <path d="M225.94,240.727h-2.443v41.908h-22.528v-105.146h39.63c20.628,0,33.522,13.312,33.522,31.618,0,15.282-9.364,27.384-24.566,30.712l26.601,42.816h-25.243l-24.973-41.908ZM223.497,222.876h16.422c7.601,0,12.079-4.387,12.079-11.65,0-7.11-4.478-11.648-12.079-11.648h-16.422v23.298Z" fill="#18159b" stroke-width="0"/>
    <path d="M410.382,282.635l-4.613-67.779-18.187,64.451h-18.865l-18.187-64.754-4.613,68.082h-21.038l6.921-105.146h26.466l19.815,70.198,19.952-70.198h26.329l7.193,105.146h-21.173Z" fill="#18159b" stroke-width="0"/>
  </g>
  <g>
    <rect x="62.931" y="313.01" width="385.593" height="13.962" rx=".843" ry=".843" fill="#18159b" stroke-width="0"/>
    <path d="M442.262,329.345H69.193c-4.626,0-8.391-4.197-8.391-9.354s3.765-9.356,8.391-9.356h373.069c4.626,0,8.391,4.197,8.391,9.356s-3.765,9.354-8.391,9.354ZM69.193,315.382c-2.279,0-4.133,2.067-4.133,4.61s1.854,4.607,4.133,4.607h373.069c2.279,0,4.133-2.067,4.133-4.607s-1.854-4.61-4.133-4.61H69.193Z" fill="#18159b" stroke-width="0"/>
  </g>
  <g>
    <rect x="66.542" y="366.044" width="385.593" height="13.962" rx=".843" ry=".843" fill="#18159b" stroke-width="0"/>
    <path d="M445.873,382.38H72.804c-4.626,0-8.391-4.197-8.391-9.356s3.765-9.354,8.391-9.354h373.069c4.626,0,8.391,4.197,8.391,9.354s-3.765,9.356-8.391,9.356ZM72.804,368.416c-2.279,0-4.133,2.067-4.133,4.607s1.854,4.61,4.133,4.61h373.069c2.279,0,4.133-2.067,4.133-4.61s-1.854-4.607-4.133-4.607H72.804Z" fill="#18159b" stroke-width="0"/>
  </g>
</svg>