<?xml version="1.0" encoding="UTF-8"?>
<svg id="Capa_4" data-name="Capa 4" xmlns="http://www.w3.org/2000/svg" width="512.475" height="511.404" viewBox="0 0 512.475 511.404">
  <path d="M33.827,199.467c-3.768-.764-6.64-1.344-10.593-1.344-11.357,0-15.89,5.402-15.89,15.02v7.009H.229v11.357h7.115v34.573h13.861v-34.573h10.119l.949-11.357h-11.067v-5.481c0-3.083.29-5.007,4.717-5.007,1.634,0,4.243.29,6.166.685l1.739-10.883h0ZM75.593,266.082v-29.935c0-12.991-3.557-17.919-19.816-17.919-5.402,0-12.438.975-16.865,2.319l1.845,10.409c4.427-.87,8.564-1.37,12.701-1.37,7.405,0,8.274,1.66,8.274,6.456v3.557h-10.119c-9.618,0-13.94,3.768-13.94,13.202,0,7.984,3.557,14.23,12.227,14.23,3.162,0,7.984-.949,13.36-3.953l.975,3.004h11.357ZM61.733,254.619c-2.108.975-4.137,1.634-7.036,1.634-2.688,0-3.742-1.054-3.742-3.663,0-2.582,1.159-3.347,4.137-3.347h6.64v5.376ZM98.123,237.096c0-4.796,2.003-7.009,7.589-7.009,2.714,0,6.746.474,9.644,1.159l1.713-11.568c-4.717-1.054-8.09-1.449-11.357-1.449-15.205,0-21.45,5.692-21.45,19.078v10.672c0,13.386,6.245,19.052,21.45,19.052,3.268,0,6.64-.369,11.357-1.449l-1.713-11.542c-3.373.764-6.087,1.159-9.644,1.159-5.586,0-7.589-2.213-7.589-7.036v-11.067ZM162.42,247.505v-9.829c0-10.198-3.373-19.447-18.973-19.447s-20.106,8.669-20.106,18.788v10.962c0,11.542,5.771,19.052,20.975,19.052,6.535,0,13.386-1.449,17.602-2.978l-2.003-10.382c-4.137,1.238-9.934,2.003-14.256,2.003-6.351,0-8.459-1.449-8.459-6.825v-1.344h25.218ZM149.323,237.096h-12.121v-2.003c0-3.294,1.528-5.982,6.351-5.982,4.796,0,5.771,2.688,5.771,5.982v2.003ZM214.094,247.294v-12.121c0-10.488-4.032-16.944-14.44-16.944-5.086,0-9.513,1.159-13.281,2.609v-22.715l-13.861,1.924v65.456c6.456,1.054,14.045,1.528,19.052,1.528,19.368,0,22.53-8.564,22.53-19.737ZM186.373,232.88c2.609-1.37,5.876-2.609,8.854-2.609,3.663,0,5.007,1.924,5.007,5.007v12.121c0,4.427-1.239,7.615-8.169,7.615-1.924,0-3.663,0-5.692-.211v-21.924ZM242.975,267.031c16.654,0,21.16-9.328,21.16-18.946v-10.883c0-9.618-4.506-18.973-21.16-18.973s-21.186,9.355-21.186,18.973v10.883c0,9.618,4.532,18.946,21.186,18.946ZM242.975,255.384c-5.007,0-7.326-2.503-7.326-6.93v-11.647c0-4.427,2.319-6.93,7.326-6.93s7.299,2.503,7.299,6.93v11.647c0,4.427-2.293,6.93-7.299,6.93h0ZM293.015,267.031c16.654,0,21.186-9.328,21.186-18.946v-10.883c0-9.618-4.532-18.973-21.186-18.973s-21.16,9.355-21.16,18.973v10.883c0,9.618,4.506,18.946,21.16,18.946ZM293.015,255.384c-5.007,0-7.299-2.503-7.299-6.93v-11.647c0-4.427,2.293-6.93,7.299-6.93s7.326,2.503,7.326,6.93v11.647c0,4.427-2.319,6.93-7.326,6.93h0ZM338.155,266.082v-67.959l-13.861,1.924v66.036h13.861ZM339.999,242.498l12.49,23.584h14.836l-12.886-23.584,12.306-23.294h-14.809l-11.937,23.294Z" fill="#3a589e" stroke-width="0"/>
  <path d="M427.511,266.161h5.007l-20.079-57.682h-7.536l-20.106,57.682h5.033l5.376-15.152h26.852l5.455,15.152ZM408.617,211.43l11.884,35.152h-23.742l11.858-35.152ZM441.372,255.331c0,7.642,3.716,11.7,11.937,11.7,4.69,0,9.961-1.634,14.23-4.849l.237,3.979h4.611v-60.107l-5.033.685v17.761c-4.849-.949-8.564-1.37-12.991-1.37-9.539,0-12.991,5.27-12.991,12.991v19.21ZM467.354,257.149c-3.979,3.215-8.485,5.376-13.676,5.376-5.718,0-7.299-2.319-7.299-7.194v-19.21c0-5.718,2.266-8.485,7.8-8.485,4.084,0,8.59.501,13.176,1.449v28.064ZM512.229,255.515c0-7.879-.685-9.882-13.096-12.991-7.774-2.003-8.142-2.609-8.142-8.406,0-4.585,1.054-6.482,8.406-6.482,3.478,0,8.406.501,11.779,1.212l.527-4.269c-3.294-.949-8.063-1.449-11.963-1.449-10.382,0-13.755,3.795-13.755,10.804,0,7.721.87,10.33,11.436,12.833,9.618,2.24,9.776,2.872,9.776,8.933,0,5.349-1.555,6.825-9.355,6.825-3.109,0-7.536-.606-11.173-1.713l-.87,4.058c3.136,1.291,8.142,2.161,12.385,2.161,11.278,0,14.045-3.9,14.045-11.515Z" fill="#828282" stroke-width="0"/>
</svg>