<?xml version="1.0" encoding="UTF-8"?>
<svg id="Capa_3" data-name="Capa 3" xmlns="http://www.w3.org/2000/svg" width="511.863" height="514.574" viewBox="0 0 511.863 514.574">
  <path d="M0,255.885v67.085h315.334v-67.085H0ZM296.879,304.516H18.481v-30.15h278.399v30.15Z" fill="none" stroke-width="0"/>
  <g>
    <path d="M305.143,145.239v110.647H0v18.481h315.334v-129.127h-10.191Z" fill="#e6e6e6" stroke-width="0"/>
    <path d="M315.334,121.9v23.339h-10.191v110.647h-37.78v-65.554c4.356-2.535,8.343-5.755,11.933-9.557,10.138-10.719,15.708-25.028,15.708-40.262v-14.441H21.728v13.676c0,23.207,14.705,43.403,35.905,50.822v65.316H0V121.9c0-23.074,18.771-41.819,41.846-41.819h231.669c23.074,0,41.819,18.745,41.819,41.819Z" fill="#c43d22" stroke-width="0"/>
  </g>
  <path d="M511.863,303.407v44.459c0,26.216-21.306,47.522-47.522,47.522h-31.708l-1.214-7.075c-.026-.185-.053-.343-.079-.528,0-.026,0-.053-.026-.079-.079-.528-.185-1.056-.29-1.558-1.452-6.732-4.779-12.646-9.372-17.24-.713-.713-1.452-1.399-2.218-2.033-6.125-5.148-14.019-8.211-22.573-8.211-17.108,0-31.602,12.197-34.453,29.041-.079.475-.185.977-.238,1.452l-1.082,6.231h-230.454l-1.32-7.63c-.264-1.584-.634-3.115-1.109-4.62-.132-.502-.29-1.003-.502-1.478-1.769-4.884-4.541-9.214-8.079-12.752-.713-.713-1.452-1.399-2.218-2.033-6.125-5.148-14.019-8.211-22.573-8.211-17.082,0-31.576,12.197-34.453,29.041l-1.294,7.683h-11.564c-2.059,0-4.092-.132-6.099-.396-23.312-2.983-41.423-22.969-41.423-47.126v-91.981h464.341c2.429,0,4.805.185,7.155.554,22.837,3.432,40.367,23.18,40.367,46.967Z" fill="#c43d22" stroke-width="0"/>
  <path d="M471.496,256.44l-18.322-65.184c-7.63-27.087-32.605-46.017-60.775-46.017h-87.255v129.127h171.395l-5.043-17.926ZM452.17,255.912h-128.547v-92.219h68.775c19.933,0,37.595,13.385,42.981,32.552l16.791,59.64v.026Z" fill="#c43d22" stroke-width="0"/>
  <g>
    <path d="M117.141,175.412v.026c.053-.053.106-.106.106-.158-.026.053-.053.079-.106.132ZM75.639,194.923c-3.353,0-6.627-.29-9.716-.898-2.851-.502-5.623-1.241-8.29-2.191v83.797h209.73v-84.034c-1.03.607-2.086,1.162-3.142,1.69-4.858,2.455-9.98,4.092-15.313,4.858v59.006H76.114v-60.141M111.888,181.616,117.141,175.412v.026c.053-.053.106-.106.106-.158-.026.053-.053.079-.106.132Z" fill="#42210b" stroke-width="0"/>
    <path d="M294.305,128.289v14.441c0,15.233-5.571,29.543-15.708,40.262-3.591,3.802-7.577,7.023-11.933,9.557-1.03.607-2.086,1.162-3.142,1.69-4.858,2.455-9.98,4.092-15.313,4.858v-1.927c-3.063.554-6.151.818-9.32.818-11.115,0-21.596-3.406-30.255-9.478-2.535-2.007-4.884-4.251-7.023-6.706-.106.132-.238.264-.37.396-.502-.475-.977-.977-1.426-1.478-.554.607-1.162,1.241-1.769,1.848-9.9,9.927-23.127,15.418-37.226,15.418-17.979,0-33.872-9.029-43.403-22.837,0-.026-.026-.026-.026-.053-.238.343-.475.686-.713,1.003-.053.053-.079.079-.132.132-.026.053-.053.079-.106.132v.026c-1.056,1.267-2.191,2.508-3.379,3.696-10.138,10.191-23.682,15.788-38.123,15.788-3.353,0-6.627-.29-9.716-.898-2.851-.502-5.623-1.241-8.29-2.191-21.2-7.419-35.905-27.615-35.905-50.822v-13.676h273.277Z" fill="#f7931e" stroke-width="0"/>
  </g>
  <path d="M94.839,447.114c-29.467,0-53.441-23.984-53.441-53.464,0-3.134.266-6.208.792-9.135,4.374-25.655,26.523-44.33,52.65-44.33s48.298,18.675,52.686,44.407c.512,2.86.778,5.933.778,9.059,0,29.48-23.983,53.464-53.464,53.464ZM94.839,358.66c-17.093,0-31.582,12.212-34.451,29.036-.351,1.959-.514,3.88-.514,5.953,0,19.292,15.686,34.988,34.966,34.988s34.988-15.696,34.988-34.988c0-2.067-.165-3.991-.502-5.88-2.882-16.898-17.381-29.11-34.486-29.11Z" stroke="#fff" stroke-miterlimit="10" stroke-width="2.64"/>
  <path d="M396.871,447.114c-29.481,0-53.464-23.984-53.464-53.464,0-3.134.266-6.208.792-9.135,4.374-25.655,26.532-44.33,52.672-44.33s48.274,18.675,52.662,44.407c.512,2.846.779,5.921.779,9.059,0,29.48-23.974,53.464-53.441,53.464ZM396.871,358.66c-17.106,0-31.604,12.212-34.474,29.036-.351,1.959-.514,3.88-.514,5.953,0,19.292,15.696,34.988,34.988,34.988s34.966-15.696,34.966-34.988c0-2.073-.165-3.993-.502-5.872-2.883-16.906-17.372-29.118-34.464-29.118Z" stroke="#fff" stroke-miterlimit="10" stroke-width="2.64"/>
  <rect x="295.906" y="263.307" width="27.274" height="120.321" fill="#c43d22" stroke="#c43d22" stroke-miterlimit="10" stroke-width="2.64"/>
  <path d="M94.85,407.708c-7.06,0-12.804-5.743-12.804-12.804s5.743-12.802,12.804-12.802,12.804,5.743,12.804,12.802-5.743,12.804-12.804,12.804ZM94.85,384.614c-5.674,0-10.291,4.617-10.291,10.291s4.617,10.292,10.291,10.292,10.291-4.617,10.291-10.292l-10.291-10.291Z" stroke-width="0"/>
  <path d="M396.859,408.964c-7.06,0-12.804-5.743-12.804-12.804s5.743-12.804,12.804-12.804,12.804,5.743,12.804,12.804-5.743,12.804-12.804,12.804ZM396.859,385.87c-5.674,0-10.291,4.617-10.291,10.291s4.617,10.291,10.291,10.291,10.291-4.617,10.291-10.291l-10.291-10.291Z" stroke-width="0"/>
</svg>