<?xml version="1.0" encoding="UTF-8"?>
<svg id="Capa_7" data-name="Capa 7" xmlns="http://www.w3.org/2000/svg" width="514.437" height="514.574" viewBox="0 0 514.437 514.574">
  <path d="M23.349,94.988c-8.168,0-14.813,5.727-14.813,12.767v319.57c0,7.039,6.645,12.766,14.813,12.766s14.813-5.726,14.813-12.766V107.755c0-7.039-6.645-12.767-14.813-12.767Z" fill="#6b2b08" stroke="#6b2b08" stroke-miterlimit="10" stroke-width="8.442"/>
  <path d="M485.954,430.852c-9.486,0-17.204-11.42-17.204-25.457v-188.755c0-14.037,7.718-25.457,17.204-25.457s17.204,11.42,17.204,25.457l2.936,188.755c0,14.037-10.654,25.457-20.141,25.457Z" fill="#6b2b08" stroke="#6b2b08" stroke-miterlimit="10" stroke-width="16.686"/>
  <path d="M462.506,378.244H42.617c-2.46,0-4.455-1.995-4.455-4.455v-67.992c0-2.46,1.995-4.455,4.455-4.455h419.889c2.46,0,4.455,1.995,4.455,4.455v67.992c0,2.46-1.995,4.455-4.455,4.455ZM55.537,332.38c-.655-7.222-2.65-5.227-2.65-2.767h0c0,2.46,1.995,4.455,4.455-1.107h390.438c2.46,5.562,4.455,3.567,4.455,1.107h0c0-2.46-1.995-4.455-6.261,2.767" fill="#6b2b08" stroke="#6b2b08" stroke-miterlimit="10" stroke-width="16.686"/>
  <path d="M165.037,290.541H47.571v-18.661c0-15.771,14.888-28.602,33.189-28.602h51.089c18.3,0,33.188,12.831,33.188,28.602v18.661Z" fill="#dce05a" stroke="#dce05a" stroke-miterlimit="10" stroke-width="16.686"/>
  <path d="M103.562,228.099c-27.942,0-50.674-19.591-50.674-43.672s22.733-43.673,50.674-43.673,50.674,19.592,50.674,43.673-22.733,43.672-50.674,43.672Z" fill="#d3635b" stroke="#d3635b" stroke-miterlimit="10" stroke-width="16.202"/>
  <path d="M472.386,297.994H171.034v-117.712h185.76c63.737,0,115.592,44.69,115.592,99.621v18.091Z" fill="#ddd3a8" stroke="#ddd3a8" stroke-miterlimit="10" stroke-width="16.686"/>
</svg>