<?xml version="1.0" encoding="UTF-8"?>
<svg id="Capa_16" data-name="Capa 16" xmlns="http://www.w3.org/2000/svg" width="516.287" height="516.337" viewBox="0 0 516.287 516.337">
  <g id="uuid-8e9956d1-e01b-4956-8fb2-29d0bb33a7c4">
    <path d="M308.556,476.114l-26.673-28.27v66.602l-21.561-39.929v-23.318l-31.465,26.513c0-53.665-15.333-65.484-19.166-67.72,5.591,2.715,42.326,19.965,61.492,24.596,20.763,4.951,62.289-24.916,62.289-24.916-26.673,28.27-24.916,66.443-24.916,66.443Z" fill="#1d1d1b" stroke-width="0"/>
    <path d="M141.779,317.2s-37.62-108.686,11.729-179.732c0,0,16.134-21.463,24.507-39.001,5.865-12.332,9.7-28.61,11.417-43.751,0,0,.134,8.786,13.513,31.353,0,0,7.871-20.226,19.913-41.031,9.968-17.193,22.923-34.654,35.478-42.592,0,0-1.271,2.431-2.251,6.936-2.052,9.621-4.036,28.464,2.765,43.751,1.004,2.286,2.017,3.824,3.612,5.73,6.612,7.828,10.302,5.062,10.859-.981.535-5.53-2.051-18.307-5.541-21.274,0,0,45.435,42.704,66.686,46.048l-17.694-32.479s6.645,6.523,17.182,14.684c6.712,5.207,15.921,11.529,24.529,18.62,39.939,32.936,87.145,95.318,35.746,233.718,0,0,12.531-44.331-24.24-82.997,0,0,31.9,9.41,7.515-20.828,0,0-23.492-31.62-33.738-32.334-4.505-.335-13.169,1.361-25.745,4.07,0,0,17.271-20.059,23.96-29.057l-51.489,30.539,4.037-30.539s-28.398,63.955-74.525,4.461c0,0,2.03,6.767,8.027,20.269,0,0-62.839-15.943-80.611,51.779l14.573.825s-19.446,18.876-20.214,83.811h0Z" fill="#1d1d1b" stroke-width="0"/>
    <path d="M229.002,263.614c0,7.984-6.455,14.428-14.428,14.428s-14.417-6.444-14.417-14.428,6.445-14.417,14.417-14.417,14.428,6.445,14.428,14.417h0Z" fill="#1d1d1b" stroke-width="0"/>
    <path d="M345.415,263.614c0,7.984-6.467,14.428-14.45,14.428s-14.406-6.444-14.406-14.428,6.445-14.417,14.406-14.417,14.45,6.445,14.45,14.417h0Z" fill="#1d1d1b" stroke-width="0"/>
    <path d="M165.371,231.683s33.169-40.942,89.665,3.121c0,0-47.32-29.257-89.665-3.121h0Z" fill="#1d1d1b" stroke-width="0"/>
    <path d="M379.399,236.388s-33.929-29.948-88.574-6.78c0,0,52.336-38.8,88.574,6.78h0Z" fill="#1d1d1b" stroke-width="0"/>
    <path d="M424.831,235.42l-9.902.319-42.006,1.598-26.354.958-56.699,1.278h-35.298l-56.699-1.278-38.651-1.438-30.985-1.118-8.624-.319s-.48,2.076.639,6.708c1.278,6.069,4.313,15.652,6.708,23.638,2.396,8.465,3.833,13.097,5.909,15.493,2.236,2.875,5.111,3.195,10.861,3.673h110.685s3.513.798,7.187-6.069c0,0,6.069-11.021,10.542-10.861h.16c4.152-.16,10.541,10.861,10.541,10.861,3.673,6.868,7.187,6.069,7.187,6.069h110.684c1.597-.16,3.035-.32,4.313-.479,7.028-.958,7.986-3.514,12.457-18.688,2.396-7.986,5.431-17.569,6.868-23.638.958-4.631.48-6.708.48-6.708ZM258.246,253.947c-2.076,11.18-8.465,25.874-8.465,25.874-.958,1.758-2.875,1.598-2.875,1.598h-101.42c-.32,0-.639,0-.799-.16-4.631-.32-5.27-5.909-5.27-5.909l-4.473-30.825c.639-.799,8.944-1.118,20.444-.799,32.422.32,91.678,3.674,91.678,3.674,4.472.16,7.506-.32,9.902,2.076,1.917,1.757,1.278,4.472,1.278,4.472ZM398.957,281.418h-101.421s-1.917.16-2.875-1.598c0,0-6.388-14.694-8.465-25.874,0,0-.639-2.715,1.277-4.472,2.396-2.396,5.431-1.917,9.902-2.076,0,0,47.596-2.716,80.818-3.514,17.089-.479,30.346-.479,31.304.639l-4.472,30.825s-.639,6.388-6.069,6.069Z" fill="#d42f44" stroke-width="0"/>
    <path d="M329.749,344.271c-62.058,102.598-115.176,1.739-115.176,1.739l57.834,4.884,57.342-6.623Z" fill="#1d1d1b" stroke-width="0"/>
  </g>
</svg>