<?xml version="1.0" encoding="UTF-8"?>
<svg id="Capa_18" data-name="Capa 18" xmlns="http://www.w3.org/2000/svg" width="516.287" height="516.337" viewBox="0 0 516.287 516.337">
  <path d="M438.58,513.231H75.704c-21.192,0-38.434-17.241-38.434-38.434V39.879C37.27,18.687,54.512,1.446,75.704,1.446h362.876c21.192,0,38.434,17.242,38.434,38.434v434.918c0,21.193-17.242,38.434-38.434,38.434Z" fill="#ce6506" stroke-width="0"/>
  <g>
    <path d="M174.191,149.276l-2.792-36.79-11.004,34.983h-11.415l-11.004-35.147-2.792,36.954h-12.728l4.188-57.073h16.013l11.99,38.103,12.071-38.103h15.931l4.352,57.073h-12.811Z" fill="#fff" stroke-width="0"/>
    <path d="M242.685,137.368v11.907h-39.5v-57.073h39.089v11.907h-25.375v10.264h22.254v11.907h-22.254v11.087h25.786Z" fill="#fff" stroke-width="0"/>
    <path d="M305.838,92.203v57.073h-11.333l-22.172-33.341v33.341h-13.714v-57.073h11.415l22.09,33.587v-33.587h13.714Z" fill="#fff" stroke-width="0"/>
    <path d="M370.141,92.203v34.654c0,12.811-7.718,23.486-23.404,23.486-15.767,0-23.568-10.675-23.568-23.486v-34.654h13.796v34.572c0,6.323,3.203,10.594,9.772,10.594,6.487,0,9.691-4.271,9.691-10.594v-34.572h13.713Z" fill="#fff" stroke-width="0"/>
  </g>
  <rect x="128.164" y="193.335" width="248.034" height="10.266" fill="#fff" stroke-width="0"/>
  <rect x="127.133" y="252.205" width="248.034" height="10.266" fill="#fff" stroke-width="0"/>
  <rect x="128.292" y="316.667" width="248.034" height="10.266" fill="#fff" stroke-width="0"/>
  <rect x="127.266" y="381.13" width="248.034" height="10.266" fill="#fff" stroke-width="0"/>
</svg>