<?xml version="1.0" encoding="UTF-8"?>
<svg id="Capa_12" data-name="Capa 12" xmlns="http://www.w3.org/2000/svg" width="514.51" height="516.337" viewBox="0 0 514.51 516.337">
  <path d="M286.47,462.662v18.161l-189.962-1.178c-38.949,0-70.637-31.688-70.637-70.637V75.578C25.871,36.629,57.559,4.941,96.508,4.941h223.142c38.949,0,70.637,31.688,70.637,70.637l1.377,187.129" fill="#443d3d" stroke-width="0"/>
  <path d="M263.14,466.527c-.706,3.696-3.73,6.72-7.426,7.426" fill="#2b2525" stroke-width="0"/>
  <g>
    <rect x="97.79" y="124.913" width="207.673" height="9.984" rx=".642" ry=".642" fill="#baaeae" stroke-width="0"/>
    <path d="M300.471,143.978H102.781c-7.759,0-14.072-6.314-14.072-14.073s6.312-14.072,14.072-14.072h197.69c7.759,0,14.072,6.312,14.072,14.072s-6.312,14.073-14.072,14.073Z" fill="#fff" stroke-width="0"/>
  </g>
  <g>
    <rect x="97.79" y="193.774" width="201.583" height="9.984" rx=".642" ry=".642" fill="#baaeae" stroke-width="0"/>
    <path d="M294.382,212.839H102.781c-7.759,0-14.072-6.314-14.072-14.073s6.312-14.072,14.072-14.072h191.6c7.759,0,14.072,6.312,14.072,14.072s-6.312,14.073-14.072,14.073Z" fill="#fff" stroke-width="0"/>
  </g>
  <g>
    <rect x="97.79" y="262.189" width="150.513" height="9.984" rx=".642" ry=".642" fill="#baaeae" stroke-width="0"/>
    <path d="M243.31,281.253H102.781c-7.759,0-14.072-6.312-14.072-14.072s6.312-14.073,14.072-14.073h140.529c7.759,0,14.073,6.314,14.073,14.073s-6.314,14.072-14.073,14.072Z" fill="#fff" stroke-width="0"/>
  </g>
  <g>
    <rect x="97.79" y="335.042" width="114.222" height="9.984" rx=".642" ry=".642" fill="#baaeae" stroke-width="0"/>
    <path d="M207.02,354.107h-104.239c-7.759,0-14.072-6.314-14.072-14.073s6.312-14.072,14.072-14.072h104.239c7.759,0,14.072,6.312,14.072,14.072s-6.312,14.073-14.072,14.073Z" fill="#fff" stroke-width="0"/>
  </g>
  <path d="M363.703,502.664c-70.371,0-127.622-54.224-127.622-124.595s57.251-130.649,127.622-130.649,127.624,57.251,127.624,127.622-57.251,127.622-127.624,127.622Z" fill="#443d3d" stroke="#fff" stroke-miterlimit="10" stroke-width="15.55"/>
  <path d="M357.102,437.123v-17.156c-9.852-.171-20.043-3.228-25.988-7.473l4.078-11.38c6.114,4.076,14.946,7.302,24.458,7.302,12.061,0,20.213-6.964,20.213-16.644,0-9.342-6.623-15.118-19.194-20.213-17.325-6.795-28.026-14.608-28.026-29.385,0-14.097,10.023-24.798,25.648-27.345v-17.156h10.532v16.477c10.19.338,17.154,3.057,22.079,5.945l-4.245,11.209c-3.566-2.038-10.532-5.774-21.403-5.774-13.078,0-18.003,7.814-18.003,14.606,0,8.833,6.285,13.249,21.062,19.363,17.494,7.135,26.326,15.967,26.326,31.083,0,13.42-9.342,25.988-26.836,28.876v17.665h-10.701Z" fill="#fff" stroke="#fff" stroke-miterlimit="10" stroke-width="10.909"/>
</svg>