<?xml version="1.0" encoding="UTF-8"?>
<svg id="Capa_4" data-name="Capa 4" xmlns="http://www.w3.org/2000/svg" width="512.475" height="512.193" viewBox="0 0 512.475 512.193">
  <path d="M196.678,154.638v-.016l107.065,64.131,63.796-26.854c12.967-5.601,26.945-8.481,41.07-8.463,2.359,0,4.686.112,6.996.255-21.856-85.261-108.692-136.662-193.953-114.806-38.412,9.847-71.774,33.66-93.568,66.787l1.626-.048c23.659-.031,46.855,6.555,66.968,19.013Z" fill="#0364b8" stroke-width="0"/>
  <path d="M196.694,154.622c-20.119-12.456-43.321-19.036-66.984-18.997l-1.626.048C57.702,136.554,1.359,194.324,2.24,264.706c.319,25.521,8.294,50.359,22.891,71.296l94.38-39.731,41.978-17.658,93.439-39.333,48.799-20.527-107.034-64.131Z" fill="#0078d4" stroke-width="0"/>
  <path d="M415.606,183.692c-2.329-.163-4.662-.248-6.996-.255-14.121-.012-28.093,2.874-41.054,8.479l-63.812,26.838,18.503,11.076,60.641,36.321,26.456,15.841,90.475,54.186c27.134-50.368,8.3-113.196-42.068-140.33-13.019-7.014-27.389-11.159-42.143-12.156h0Z" fill="#1490df" stroke-width="0"/>
  <path d="M409.342,281.992l-26.456-15.841-60.641-36.337-18.487-11.06-48.815,20.527-93.439,39.333-41.994,17.658-94.411,39.731c23.819,34.242,62.9,54.646,104.611,54.616h278.899c38.103.014,73.136-20.897,91.208-54.441l-90.475-54.186Z" fill="#28a8ea" stroke-width="0"/>
</svg>