<?xml version="1.0" encoding="UTF-8"?>
<svg id="Capa_2" data-name="Capa 2" xmlns="http://www.w3.org/2000/svg" width="313.71" height="514.574" viewBox="0 0 313.71 514.574">
  <path d="M71.749,501.375c-25.454,0-46.164-19.643-46.164-43.786l.018-.653,12.684-246.035c-19.722-11.695-32.083-33.044-32.083-56.405V41.234h22.926v113.262c0,16.988,10.04,32.338,25.582,39.106l7.265,3.165-.54,10.844-12.925,250.267c.173,11.371,10.531,20.571,23.237,20.571s23.066-9.202,23.239-20.572l-13.071-253.2-.39-7.911,7.261-3.164c15.542-6.768,25.582-22.118,25.582-39.106V42.182h22.926v112.315c0,23.361-12.364,44.709-32.085,56.406l12.704,246.687c0,24.143-20.71,43.786-46.166,43.786Z" fill="#c1272d" stroke-width="0"/>
  <rect x="61.959" y="4.249" width="19.58" height="227.7" rx="9.79" ry="9.79" transform="translate(143.499 236.198) rotate(-180)" fill="#c1272d" stroke="#c1272d" stroke-miterlimit="10" stroke-width="4.937"/>
  <g>
    <path d="M124.531,3.161h2.605c4.97,0,9.004,4.035,9.004,9.004v126.981c0,5.688-4.618,10.307-10.307,10.307h0c-5.688,0-10.307-4.618-10.307-10.307V12.166c0-4.97,4.035-9.004,9.004-9.004Z" transform="translate(251.666 152.615) rotate(-180)" fill="#c1272d" stroke-width="0"/>
    <path d="M137.227,150.541h-22.79V12.952c0-5.998,4.881-10.879,10.879-10.879h1.033c5.998,0,10.878,4.881,10.878,10.879v137.589ZM116.614,148.365h18.437V12.952c0-4.798-3.903-8.703-8.702-8.703h-1.033c-4.798,0-8.703,3.905-8.703,8.703v135.413Z" fill="#c1272d" stroke-width="0"/>
  </g>
  <g>
    <path d="M7.36,3.161h20.613v135.985c0,5.688-4.618,10.307-10.307,10.307h0c-5.688,0-10.307-4.618-10.307-10.307V3.161h0Z" transform="translate(35.332 152.615) rotate(-180)" fill="#c1272d" stroke-width="0"/>
    <path d="M29.061,150.541H6.271V12.952c0-5.998,4.879-10.879,10.878-10.879h1.033c5.998,0,10.879,4.881,10.879,10.879v137.589ZM8.448,148.365h18.437V12.952c0-4.798-3.905-8.703-8.703-8.703h-1.033c-4.798,0-8.702,3.905-8.702,8.703v135.413Z" fill="#c1272d" stroke-width="0"/>
  </g>
  <path d="M59.403,222.135l-13.421-5.76c-24.076-10.332-39.632-33.927-39.632-60.108,0-4.466.462-8.95,1.373-13.327L27.821,46.413v108.084c0,17.508,10.349,33.329,26.367,40.305l6.438,2.804-1.223,24.529Z" fill="#c1272d" stroke-width="0"/>
  <path d="M84.087,222.136l-1.21-24.532,6.433-2.802c16.018-6.976,26.367-22.797,26.367-40.305V46.413l20.098,96.526c.911,4.378,1.373,8.862,1.373,13.327,0,26.183-15.557,49.776-39.633,60.108l-13.428,5.762Z" fill="#c1272d" stroke-width="0"/>
  <path d="M260.381,497.321c-.226,0-.45-.001-.676-.006-23.341-.357-42.329-20.15-42.329-44.124l27.841-56.544c0-25.099-13.275-52.91-4.629-76.472,9.215-25.114-12.751-48.004-18.495-56.973-3.084-4.815-4.716-10.409-4.716-16.171V70.137c0-30.934,34.288-68.781,74.306-68.852l11.626-.02.096,11.721v441.335c0,16.018-8.69,30.656-23.856,38.639-5.869,3.089-12.535,4.362-19.167,4.362ZM280.192,26.105c-22.386,6.201-39.605,28.961-39.605,44.032v176.895c0,1.279.339,2.54,1.029,3.617,7.192,11.216,28.543,51.355-.223,94.923-.51.773-.806,1.694-.806,2.62v105c0,11.369,8.735,20.751,19.471,20.915,5.157.084,9.838-1.712,13.552-5.062,3.82-3.445,6.582-10.86,6.582-16.004V26.105Z" fill="#c1272d" stroke-width="0"/>
  <path d="M71.75,509.29h0c-29.367,0-52.409-25.193-49.795-54.443l18.877-227.314h61.835l18.877,227.314c2.614,29.251-20.428,54.443-49.795,54.443Z" fill="#42210b" stroke="#42210b" stroke-miterlimit="10" stroke-width="5.055"/>
  <path d="M259.728,511.845h0c-32.13,0-48.422-29.224-42.44-60.793l28.052-148.029h53.842l11.65,153.697c2.255,29.746-21.273,55.124-51.104,55.124Z" fill="#42210b" stroke="#42210b" stroke-miterlimit="10" stroke-width="5.456"/>
</svg>