<?xml version="1.0" encoding="UTF-8"?>
<svg id="Capa_8" data-name="Capa 8" xmlns="http://www.w3.org/2000/svg" width="514.437" height="514.574" viewBox="0 0 514.437 514.574">
  <path d="M358.265,318.097c-.677-.02-1.38.02-2.087.122-4.809.695-8.66,4.622-9.156,9.333-.374,3.55.967,6.916,3.679,9.239,2.738,2.343,6.409,3.176,10.066,2.307,3.872-.927,7.114-4.235,7.883-8.041.718-3.559-.285-7.058-2.756-9.605-2.013-2.078-4.724-3.269-7.63-3.355ZM295.845,433.979c-13.523-.404-24.837,10.254-25.24,23.777-.403,13.494,10.254,24.837,23.777,25.24,13.494.403,24.837-10.283,25.24-23.777.404-13.523-10.283-24.837-23.777-25.24ZM275.085,459.477c-.273-5.347,1.61-10.428,5.305-14.329,3.725-3.929,8.783-6.145,14.27-6.241.347-.019.693-.008,1.039.002,3.604.108,7.093,1.164,10.125,3.044,5.696,3.518,9.181,9.538,9.331,16.123.105,5.169-1.831,10.104-5.464,13.863-3.782,3.899-8.897,6.083-14.41,6.121-10.541.234-19.668-8.206-20.195-18.582ZM426.962,430.793c-13.494-.403-24.837,10.283-25.24,23.777-.404,13.523,10.283,24.837,23.777,25.24,13.523.404,24.837-10.254,25.24-23.777.403-13.494-10.254-24.837-23.777-25.24ZM445.983,458.749c-1.333,7.925-7.641,14.259-15.68,15.779-6.443,1.222-12.856-.528-17.605-4.826-4.077-3.614-6.381-8.588-6.509-13.989-.147-6.671,3.155-12.893,8.808-16.649,3.18-2.127,6.908-3.257,10.807-3.343.347-.019.693-.008,1.039.002,5.594.167,10.917,2.635,14.573,6.813,3.909,4.417,5.579,10.325,4.566,16.211ZM426.962,430.793c-13.494-.403-24.837,10.283-25.24,23.777-.404,13.523,10.283,24.837,23.777,25.24,13.523.404,24.837-10.254,25.24-23.777.403-13.494-10.254-24.837-23.777-25.24ZM445.983,458.749c-1.333,7.925-7.641,14.259-15.68,15.779-6.443,1.222-12.856-.528-17.605-4.826-4.077-3.614-6.381-8.588-6.509-13.989-.147-6.671,3.155-12.893,8.808-16.649,3.18-2.127,6.908-3.257,10.807-3.343.347-.019.693-.008,1.039.002,5.594.167,10.917,2.635,14.573,6.813,3.909,4.417,5.579,10.325,4.566,16.211ZM295.845,433.979c-13.523-.404-24.837,10.254-25.24,23.777-.403,13.494,10.254,24.837,23.777,25.24,13.494.403,24.837-10.283,25.24-23.777.404-13.523-10.283-24.837-23.777-25.24ZM275.085,459.477c-.273-5.347,1.61-10.428,5.305-14.329,3.725-3.929,8.783-6.145,14.27-6.241.347-.019.693-.008,1.039.002,3.604.108,7.093,1.164,10.125,3.044,5.696,3.518,9.181,9.538,9.331,16.123.105,5.169-1.831,10.104-5.464,13.863-3.782,3.899-8.897,6.083-14.41,6.121-10.541.234-19.668-8.206-20.195-18.582ZM465.993,418.741c-10.577-11.109-25.515-17.298-40.965-16.951-3.812.088-7.607.552-11.297,1.394l-13.044-105.38L449.906,24.705c.141-.862.198-1.783.199-2.793-.176-7.624-5.614-13.991-13.159-15.486-8.491-1.725-16.898,3.42-19.168,11.78l-54.688,214.611-24.93-218.662C337.078,5.926,329.872-.176,321.411.004l-.751.035c-8.676.607-15.385,7.823-15.238,16.457l6.833,290.27-6.885,99.157c-5.223-.993-10.526-1.238-15.881-.676-26.803,2.663-48.263,25.485-48.852,51.961-.326,14.795,5.349,28.673,15.975,39.12,9.87,9.674,22.921,15.229,36.819,15.644.952.028,1.904.028,2.885.028,24.633-.535,45.853-17.245,51.69-40.707,1.75-4.479,2.965-9.406,3.577-14.467l7.777-47.819,11.506,50.588c.608,2.847,1.42,5.612,2.41,8.21,6.507,26.601,32.221,44.02,59.97,40.606,25.142-3.088,44.996-23.331,47.237-48.142,1.379-15.254-3.884-30.389-14.489-41.528ZM426.962,430.793c-13.494-.403-24.837,10.283-25.24,23.777-.404,13.523,10.283,24.837,23.777,25.24,13.523.404,24.837-10.254,25.24-23.777.403-13.494-10.254-24.837-23.777-25.24ZM445.983,458.749c-1.333,7.925-7.641,14.259-15.68,15.779-6.443,1.222-12.856-.528-17.605-4.826-4.077-3.614-6.381-8.588-6.509-13.989-.147-6.671,3.155-12.893,8.808-16.649,3.18-2.127,6.908-3.257,10.807-3.343.347-.019.693-.008,1.039.002,5.594.167,10.917,2.635,14.573,6.813,3.909,4.417,5.579,10.325,4.566,16.211ZM295.845,433.979c-13.523-.404-24.837,10.254-25.24,23.777-.403,13.494,10.254,24.837,23.777,25.24,13.494.403,24.837-10.283,25.24-23.777.404-13.523-10.283-24.837-23.777-25.24ZM275.085,459.477c-.273-5.347,1.61-10.428,5.305-14.329,3.725-3.929,8.783-6.145,14.27-6.241.347-.019.693-.008,1.039.002,3.604.108,7.093,1.164,10.125,3.044,5.696,3.518,9.181,9.538,9.331,16.123.105,5.169-1.831,10.104-5.464,13.863-3.782,3.899-8.897,6.083-14.41,6.121-10.541.234-19.668-8.206-20.195-18.582ZM295.845,433.979c-13.523-.404-24.837,10.254-25.24,23.777-.403,13.494,10.254,24.837,23.777,25.24,13.494.403,24.837-10.283,25.24-23.777.404-13.523-10.283-24.837-23.777-25.24ZM275.085,459.477c-.273-5.347,1.61-10.428,5.305-14.329,3.725-3.929,8.783-6.145,14.27-6.241.347-.019.693-.008,1.039.002,3.604.108,7.093,1.164,10.125,3.044,5.696,3.518,9.181,9.538,9.331,16.123.105,5.169-1.831,10.104-5.464,13.863-3.782,3.899-8.897,6.083-14.41,6.121-10.541.234-19.668-8.206-20.195-18.582ZM426.962,430.793c-13.494-.403-24.837,10.283-25.24,23.777-.404,13.523,10.283,24.837,23.777,25.24,13.523.404,24.837-10.254,25.24-23.777.403-13.494-10.254-24.837-23.777-25.24ZM445.983,458.749c-1.333,7.925-7.641,14.259-15.68,15.779-6.443,1.222-12.856-.528-17.605-4.826-4.077-3.614-6.381-8.588-6.509-13.989-.147-6.671,3.155-12.893,8.808-16.649,3.18-2.127,6.908-3.257,10.807-3.343.347-.019.693-.008,1.039.002,5.594.167,10.917,2.635,14.573,6.813,3.909,4.417,5.579,10.325,4.566,16.211ZM295.845,433.979c-13.523-.404-24.837,10.254-25.24,23.777-.403,13.494,10.254,24.837,23.777,25.24,13.494.403,24.837-10.283,25.24-23.777.404-13.523-10.283-24.837-23.777-25.24ZM275.085,459.477c-.273-5.347,1.61-10.428,5.305-14.329,3.725-3.929,8.783-6.145,14.27-6.241.347-.019.693-.008,1.039.002,3.604.108,7.093,1.164,10.125,3.044,5.696,3.518,9.181,9.538,9.331,16.123.105,5.169-1.831,10.104-5.464,13.863-3.782,3.899-8.897,6.083-14.41,6.121-10.541.234-19.668-8.206-20.195-18.582ZM426.962,430.793c-13.494-.403-24.837,10.283-25.24,23.777-.404,13.523,10.283,24.837,23.777,25.24,13.523.404,24.837-10.254,25.24-23.777.403-13.494-10.254-24.837-23.777-25.24ZM445.983,458.749c-1.333,7.925-7.641,14.259-15.68,15.779-6.443,1.222-12.856-.528-17.605-4.826-4.077-3.614-6.381-8.588-6.509-13.989-.147-6.671,3.155-12.893,8.808-16.649,3.18-2.127,6.908-3.257,10.807-3.343.347-.019.693-.008,1.039.002,5.594.167,10.917,2.635,14.573,6.813,3.909,4.417,5.579,10.325,4.566,16.211Z" fill="#9269e2" stroke-width="0"/>
  <circle cx="357.919" cy="313.624" r="12.462" fill="#fff" stroke="#1b1464" stroke-miterlimit="10" stroke-width="8.549"/>
  <rect x="38.655" y="11.8" width="32.208" height="478.732" rx="1.884" ry="1.884" fill="#9269e2" stroke="#9269e2" stroke-miterlimit="10" stroke-width="6.412"/>
  <path d="M43.26,11.8h131.858c1.65,0,2.99,1.34,2.99,2.99v23.433c0,.063-.051.114-.114.114H42.536c-.657,0-1.19-.533-1.19-1.19V13.714c0-1.057.858-1.914,1.914-1.914Z" fill="#9269e2" stroke="#9269e2" stroke-miterlimit="10" stroke-width="5.729"/>
  <path d="M44.823,465.607h135.096c.063,0,.114.051.114.114v23.433c0,1.65-1.34,2.99-2.99,2.99H44.823c-.857,0-1.552-.695-1.552-1.552v-23.433c0-.857.695-1.552,1.552-1.552Z" fill="#9269e2" stroke="#9269e2" stroke-miterlimit="10" stroke-width="5.729"/>
  <rect x="41.271" y="62.764" width="136.762" height="16.413" rx=".96" ry=".96" fill="#9269e2" stroke="#9269e2" stroke-miterlimit="10" stroke-width="4.11"/>
  <rect x="41.346" y="102.605" width="136.762" height="16.413" rx=".96" ry=".96" fill="#9269e2" stroke="#9269e2" stroke-miterlimit="10" stroke-width="4.11"/>
  <rect x="42.271" y="142.445" width="136.762" height="16.413" rx=".96" ry=".96" fill="#9269e2" stroke="#9269e2" stroke-miterlimit="10" stroke-width="4.11"/>
  <rect x="41.346" y="180.286" width="136.762" height="16.413" rx=".96" ry=".96" fill="#9269e2" stroke="#9269e2" stroke-miterlimit="10" stroke-width="4.11"/>
  <rect x="41.271" y="223.955" width="136.762" height="16.413" rx=".96" ry=".96" fill="#9269e2" stroke="#9269e2" stroke-miterlimit="10" stroke-width="4.11"/>
  <rect x="42.346" y="265.114" width="136.762" height="16.413" rx=".96" ry=".96" fill="#9269e2" stroke="#9269e2" stroke-miterlimit="10" stroke-width="4.11"/>
  <rect x="42.655" y="305.417" width="136.762" height="16.413" rx=".96" ry=".96" fill="#9269e2" stroke="#9269e2" stroke-miterlimit="10" stroke-width="4.11"/>
  <rect x="42.655" y="346.448" width="136.762" height="16.413" rx=".96" ry=".96" fill="#9269e2" stroke="#9269e2" stroke-miterlimit="10" stroke-width="4.11"/>
  <rect x="41.655" y="385.817" width="136.762" height="16.413" rx=".96" ry=".96" fill="#9269e2" stroke="#9269e2" stroke-miterlimit="10" stroke-width="4.11"/>
  <rect x="41.655" y="425.264" width="136.762" height="16.413" rx=".96" ry=".96" fill="#9269e2" stroke="#9269e2" stroke-miterlimit="10" stroke-width="4.11"/>
  <circle cx="295.114" cy="458.488" r="24.288" fill="#fff" stroke-width="0"/>
  <circle cx="426.229" cy="455.311" r="24.288" fill="#fff" stroke-width="0"/>
</svg>