<?xml version="1.0" encoding="UTF-8"?>
<svg id="Capa_17" data-name="Capa 17" xmlns="http://www.w3.org/2000/svg" width="516.287" height="516.337" viewBox="0 0 516.287 516.337">
  <path d="M476.135,464.297l-100.006-9.403c-2.142-.201-3.715-2.101-3.514-4.243l.088-.938c3.555-37.81-9.675-74.443-39.316-98.181-.238-.191-.499-.356-.774-.49l-1.422-.696c-2.171-1.062-2.86-3.824-1.444-5.782h0c17.866-24.704,47.812-38.279,78.138-35.425,47.416,4.459,82.366,46.663,77.907,94.079l-5.413,57.565c-.201,2.142-2.101,3.715-4.243,3.514Z" fill="#7b49aa" stroke="#7b49aa" stroke-miterlimit="10" stroke-width="7.792"/>
  <path d="M331.086,508.29h-148.75c-12.57,0-22.76-10.19-22.76-22.76v-46.904c0-32.542,16.183-62.766,43.289-80.85,15.957-10.649,34.58-16.277,53.854-16.277,23.546,0,46.251,8.529,63.935,24.016,21.093,18.438,33.192,45.086,33.192,73.111v46.904c0,12.57-10.19,22.76-22.76,22.76Z" fill="#7b49aa" stroke="#7b49aa" stroke-miterlimit="10" stroke-width="7.792"/>
  <path d="M404.434,296.546c-31.363,0-56.878-25.515-56.878-56.878s25.515-56.877,56.878-56.877,56.878,25.515,56.878,56.877-25.515,56.878-56.878,56.878Z" fill="#7b49aa" stroke="#7b49aa" stroke-miterlimit="10" stroke-width="7.792"/>
  <path d="M27.792,455.679l-3.431-57.717c-2.826-47.542,33.553-88.519,81.095-91.346,30.405-1.81,59.867,12.786,76.874,38.09h0c1.348,2.006.564,4.742-1.642,5.729l-1.445.647c-.279.125-.545.28-.79.463-30.44,22.705-44.921,58.861-42.668,96.771l.056.941c.127,2.148-1.51,3.992-3.658,4.12l-100.27,5.96c-2.148.128-3.992-1.51-4.12-3.658Z" fill="#7b49aa" stroke="#7b49aa" stroke-miterlimit="10" stroke-width="7.792"/>
  <path d="M54.448,235.35c1.078-31.344,27.455-55.966,58.8-54.888,31.345,1.078,55.968,27.455,54.889,58.799-1.078,31.345-27.455,55.968-58.8,54.889-31.345-1.078-55.968-27.455-54.889-58.8Z" fill="#7b49aa" stroke="#7b49aa" stroke-miterlimit="10" stroke-width="7.792"/>
  <path d="M260.434,330.928c-37.858,0-68.658-30.799-68.658-68.658s30.799-68.656,68.658-68.656,68.658,30.799,68.658,68.656-30.799,68.658-68.658,68.658Z" fill="#7b49aa" stroke="#7b49aa" stroke-miterlimit="10" stroke-width="7.792"/>
  <path d="M325.276,86.497c-1.715,22.909-17.299,42.157-40.053,53.533-16.52,8.182-36.78,12.312-58.364,10.675-6-.468-11.922-1.403-17.611-2.649l-22.987,24.234c-2.104,2.26-6,1.325-6.857-1.637l-12.468-42.312c-18.39-14.494-29.221-34.598-27.585-55.949,3.039-39.351,46.988-68.105,98.34-64.209,44.182,3.351,79.326,29.767,86.417,62.027,1.169,5.299,1.637,10.753,1.169,16.286Z" fill="#e1e0e2" stroke="#acaaaf" stroke-miterlimit="10" stroke-width="6"/>
  <path d="M397.978,112.913c.546,13.948-6.935,26.728-19.169,35.767l-9.117,27.273c-.624,1.871-3.195,2.416-4.52.858l-14.416-16.286c-3.74.702-7.558,1.169-11.532,1.325-22.831.935-43.091-7.948-54.001-21.818,22.753-11.376,38.338-30.624,40.053-53.533.468-5.533,0-10.987-1.169-16.286,3.663-.702,7.481-1.169,11.377-1.325,33.507-1.403,61.482,18.39,62.494,44.027Z" fill="#e1e0e2" stroke="#acaaaf" stroke-miterlimit="10" stroke-width="6"/>
</svg>