<?xml version="1.0" encoding="UTF-8"?>
<svg id="Capa_19" data-name="Capa 19" xmlns="http://www.w3.org/2000/svg" width="516.287" height="516.974" viewBox="0 0 516.287 516.974">
  <path d="M430.063,216.288v165.447h-96.55l-88.852-134.657c-.19-.285-.665-.19-.76.095l-34.21,134.562H57.072v-178.18c7.032,2.946,14.634,4.561,22.712,4.561,32.215,0,58.348-26.133,58.348-58.348,0,32.215,26.133,58.348,58.348,58.348,22.807,0,42.478-13.019,51.981-32.025,7.603,23.377,29.555,40.197,55.402,40.197,1.521,0,3.136-.095,4.656-.19,1.616.095,3.231.19,4.847.19,23.948,0,44.569-14.445,53.502-35.161,8.933,20.716,29.554,35.161,53.502,35.161h.19c1.615,0,3.136-.095,4.751-.19,1.52.095,3.041.19,4.561.19h.19Z" fill="#b75d20" stroke="#9b4f1c" stroke-miterlimit="10" stroke-width="19.006"/>
  <path d="M431.606,48.474l-.48-13.972c-.272-12.633-10.734-22.653-23.366-22.381l-324.767-1.328c-13.953.301-25.02,11.855-24.719,25.808l.209,9.706.492,22.841c.068,3.151-.148,6.257-.623,9.303-1.932,12.379-8.147,23.753-17,33.009-10.329,10.798-16.559,25.549-16.212,41.637.52,24.132,15.694,44.621,36.786,53.007,7.094,2.794,14.729,4.245,22.805,4.071,32.208-.694,57.772-27.384,57.078-59.591.694,32.208,27.384,57.772,59.591,57.078,22.802-.491,42.188-13.931,51.279-33.137,8.104,23.208,30.413,39.552,56.255,38.995,1.52-.033,3.133-.163,4.651-.29,1.618.06,3.235.121,4.85.086,23.942-.516,44.247-15.401,52.732-36.305,9.377,20.519,30.304,34.516,54.246,34.001l.19-.004c1.615-.035,3.133-.163,4.746-.293,29.874-3.114,52.799-28.797,52.142-59.295-.401-18.628-9.436-35.028-23.209-45.419-17.785-13.418-27.195-35.253-27.675-57.526ZM427.461,94.337" fill="#c4bfa7" stroke="#b5b1a0" stroke-miterlimit="10" stroke-width="16.76"/>
  <path d="M354.609,414.71l-58.918,9.978,11.879,84.196-32.215,4.562-11.784-83.436-68.516,11.594c-.285,0-.57-.285-.475-.57l15.11-59.298,34.21-134.562c.095-.285.57-.38.76-.095l88.852,134.657,21.287,32.31c.19.285.095.665-.19.665Z" fill="#e5cd41" stroke="#706013" stroke-miterlimit="10" stroke-width="6.243"/>
  <rect x="333.583" y="249.899" width="64.938" height="69.333" fill="#fffefd" stroke="#fff" stroke-miterlimit="10" stroke-width="6.892"/>
  <rect x="109.432" y="249.899" width="64.938" height="69.333" fill="#fff" stroke="#fff" stroke-miterlimit="10" stroke-width="6.892"/>
  <rect x="173.273" y="224.142" width="42.576" height="9.543" rx="4.771" ry="4.771" transform="translate(192.503 -71.505) rotate(39.97)" fill="#fff" stroke="#fff" stroke-miterlimit="10" stroke-width=".125"/>
  <rect x="207.417" y="189.616" width="42.576" height="9.543" rx="4.771" ry="4.771" transform="translate(354.209 -78.268) rotate(74.354)" fill="#fff" stroke="#fff" stroke-miterlimit="10" stroke-width=".125"/>
  <rect x="253.441" y="214.349" width="42.576" height="9.543" rx="4.771" ry="4.771" transform="translate(607.037 104.834) rotate(122.446)" fill="#fff" stroke="#fff" stroke-miterlimit="10" stroke-width=".125"/>
</svg>