<?xml version="1.0" encoding="UTF-8"?>
<svg id="Capa_5" data-name="Capa 5" xmlns="http://www.w3.org/2000/svg" width="512.231" height="514.574" viewBox="0 0 512.231 514.574">
  <path d="M229.481,175.374c0,52.387-42.47,94.858-94.858,94.858s-94.858-42.471-94.858-94.858c0-8.823,1.231-17.372,3.488-25.51h182.74c2.257,8.139,3.488,16.687,3.488,25.51Z" fill="#f7931e" stroke="#f7931e" stroke-miterlimit="10" stroke-width="13.678"/>
  <path d="M260.605,497.017H13.524c-3.944,0-6.996-3.454-6.512-7.367l11.93-96.427c5.989-48.409,57.079-85.305,118.122-85.305h0c61.043,0,112.133,36.896,118.122,85.305l11.93,96.427c.484,3.914-2.569,7.367-6.512,7.367Z" fill="#f7931e" stroke="#f7931e" stroke-miterlimit="10" stroke-width="13.923"/>
  <path d="M252.802,149.864H16.717c-3.488,0-5.266-4.24-2.804-6.702l64.082-63.945c31.323-31.392,82.206-31.392,113.529,0l64.014,63.945c2.53,2.462.753,6.702-2.735,6.702Z" fill="#d37457" stroke="#d37457" stroke-miterlimit="10" stroke-width="11.381"/>
  <line x1="286.87" y1="328.911" x2="285.466" y2="420.76" fill="none" stroke="#180826" stroke-miterlimit="10" stroke-width="13.678"/>
  <path d="M504.797,285.803l-217.293,58.685c-.454.123-.9-.219-.9-.689v-117.369c0-.47.446-.812.9-.689l217.293,58.685c.703.19.703,1.188,0,1.378Z" fill="#d37457" stroke="#d37457" stroke-miterlimit="10" stroke-width="13.678"/>
</svg>