<svg width="137" height="64" viewBox="0 0 137 64" fill="none" xmlns="http://www.w3.org/2000/svg">
<rect width="137" height="64" rx="5" fill="#74BF63"/>
<path d="M65.8125 32H53.3838V29.8799L59.541 23.1641C60.4297 22.1738 61.0602 21.3486 61.4326 20.6885C61.8135 20.0199 62.0039 19.3512 62.0039 18.6826C62.0039 17.8024 61.7542 17.0915 61.2549 16.5498C60.764 16.0081 60.0996 15.7373 59.2617 15.7373C58.263 15.7373 57.4886 16.042 56.9385 16.6514C56.3883 17.2607 56.1133 18.0944 56.1133 19.1523H53.0283C53.0283 18.0267 53.2822 17.0153 53.79 16.1182C54.3063 15.2126 55.0384 14.5101 55.9863 14.0107C56.9427 13.5114 58.043 13.2617 59.2871 13.2617C61.0814 13.2617 62.4948 13.7145 63.5273 14.6201C64.5684 15.5173 65.0889 16.7614 65.0889 18.3525C65.0889 19.2751 64.8265 20.2441 64.3018 21.2598C63.7855 22.2669 62.9349 23.4137 61.75 24.7002L57.2305 29.5371H65.8125V32ZM82.0198 32H69.5911V29.8799L75.7484 23.1641C76.637 22.1738 77.2676 21.3486 77.64 20.6885C78.0208 20.0199 78.2113 19.3512 78.2113 18.6826C78.2113 17.8024 77.9616 17.0915 77.4622 16.5498C76.9713 16.0081 76.307 15.7373 75.4691 15.7373C74.4704 15.7373 73.696 16.042 73.1458 16.6514C72.5957 17.2607 72.3206 18.0944 72.3206 19.1523H69.2357C69.2357 18.0267 69.4896 17.0153 69.9974 16.1182C70.5137 15.2126 71.2458 14.5101 72.1937 14.0107C73.1501 13.5114 74.2503 13.2617 75.4945 13.2617C77.2887 13.2617 78.7021 13.7145 79.7347 14.6201C80.7757 15.5173 81.2962 16.7614 81.2962 18.3525C81.2962 19.2751 81.0338 20.2441 80.5091 21.2598C79.9928 22.2669 79.1422 23.4137 77.9573 24.7002L73.4378 29.5371H82.0198V32Z" fill="white"/>
<path d="M23.3262 50.7338C23.3262 50.3588 23.1934 50.0697 22.9277 49.8666C22.666 49.6635 22.1914 49.4584 21.5039 49.2513C20.8164 49.0443 20.2695 48.8138 19.8633 48.5599C19.0859 48.0717 18.6973 47.4349 18.6973 46.6498C18.6973 45.9623 18.9766 45.3959 19.5352 44.9506C20.0977 44.5052 20.8262 44.2826 21.7207 44.2826C22.3145 44.2826 22.8438 44.392 23.3086 44.6107C23.7734 44.8295 24.1387 45.142 24.4043 45.5482C24.6699 45.9506 24.8027 46.3978 24.8027 46.89H23.3262C23.3262 46.4447 23.1855 46.097 22.9043 45.847C22.627 45.5931 22.2285 45.4662 21.709 45.4662C21.2246 45.4662 20.8477 45.5697 20.5781 45.7767C20.3125 45.9838 20.1797 46.2728 20.1797 46.6439C20.1797 46.9564 20.3242 47.2181 20.6133 47.4291C20.9023 47.6361 21.3789 47.8392 22.043 48.0385C22.707 48.2338 23.2402 48.4584 23.6426 48.7123C24.0449 48.9623 24.3398 49.2513 24.5273 49.5795C24.7148 49.9037 24.8086 50.2845 24.8086 50.722C24.8086 51.433 24.5352 51.9994 23.9883 52.4213C23.4453 52.8392 22.707 53.0482 21.7734 53.0482C21.1562 53.0482 20.5879 52.9349 20.0684 52.7084C19.5527 52.4779 19.1504 52.1615 18.8613 51.7592C18.5762 51.3568 18.4336 50.8881 18.4336 50.3529H19.916C19.916 50.8373 20.0762 51.2123 20.3965 51.4779C20.7168 51.7435 21.1758 51.8763 21.7734 51.8763C22.2891 51.8763 22.6758 51.7728 22.9336 51.5658C23.1953 51.3549 23.3262 51.0775 23.3262 50.7338ZM31.7557 49.1224H28.2518V51.7474H32.3475V52.931H26.7694V44.3998H32.3065V45.5951H28.2518V47.9506H31.7557V49.1224ZM38.9899 50.9447H35.6852L34.9938 52.931H33.4528L36.6755 44.3998H38.0055L41.2341 52.931H39.6872L38.9899 50.9447ZM36.1012 49.7494H38.5739L37.3376 46.2103L36.1012 49.7494ZM48.3277 45.5951H45.6675V52.931H44.1968V45.5951H41.5601V44.3998H48.3277V45.5951ZM58.1848 50.9447H54.8801L54.1887 52.931H52.6477L55.8703 44.3998H57.2004L60.4289 52.931H58.882L58.1848 50.9447ZM55.2961 49.7494H57.7687L56.5324 46.2103L55.2961 49.7494ZM64.6104 51.0736L66.7784 44.3998H68.4073L65.337 52.931H63.9014L60.8428 44.3998H62.4659L64.6104 51.0736ZM74.3641 50.9447H71.0595L70.368 52.931H68.827L72.0497 44.3998H73.3798L76.6083 52.931H75.0614L74.3641 50.9447ZM71.4755 49.7494H73.9481L72.7118 46.2103L71.4755 49.7494ZM79.8054 52.931H78.3288V44.3998H79.8054V52.931ZM83.7701 51.7474H87.6431V52.931H82.2877V44.3998H83.7701V51.7474ZM94.3324 50.9447H91.0277L90.3363 52.931H88.7953L92.018 44.3998H93.348L96.5766 52.931H95.0297L94.3324 50.9447ZM91.4437 49.7494H93.9164L92.6801 46.2103L91.4437 49.7494ZM98.2092 52.931V44.3998H101.133C102.098 44.3998 102.832 44.5931 103.336 44.9799C103.84 45.3666 104.092 45.9427 104.092 46.7084C104.092 47.099 103.987 47.4506 103.776 47.7631C103.565 48.0756 103.256 48.3177 102.85 48.4896C103.311 48.6146 103.666 48.851 103.916 49.1986C104.17 49.5424 104.297 49.9564 104.297 50.4408C104.297 51.2416 104.039 51.8568 103.524 52.2865C103.012 52.7162 102.278 52.931 101.321 52.931H98.2092ZM99.6916 49.0814V51.7474H101.338C101.803 51.7474 102.166 51.6322 102.428 51.4017C102.69 51.1713 102.821 50.851 102.821 50.4408C102.821 49.5541 102.367 49.101 101.461 49.0814H99.6916ZM99.6916 47.9916H101.145C101.606 47.9916 101.965 47.8881 102.223 47.681C102.485 47.4701 102.615 47.1732 102.615 46.7904C102.615 46.3685 102.494 46.0638 102.252 45.8763C102.014 45.6888 101.641 45.5951 101.133 45.5951H99.6916V47.9916ZM107.922 51.7474H111.795V52.931H106.44V44.3998H107.922V51.7474ZM118.578 49.1224H115.074V51.7474H119.17V52.931H113.592V44.3998H119.129V45.5951H115.074V47.9506H118.578V49.1224Z" fill="white" fill-opacity="0.53"/>
</svg>
