<svg width="387" height="81" viewBox="0 0 387 81" fill="none" xmlns="http://www.w3.org/2000/svg">
<rect x="0.5" y="0.5" width="386" height="80" rx="4.5" fill="white"/>
<rect x="0.5" y="0.5" width="386" height="80" rx="4.5" stroke="#FC3F3F"/>
<path d="M124.588 34.2031L127.875 43.4844L131.145 34.2031H134.607V47H131.962V43.502L132.226 37.4639L128.771 47H126.961L123.516 37.4727L123.779 43.502V47H121.143V34.2031H124.588ZM145.283 44.3633H140.66L139.781 47H136.977L141.741 34.2031H144.184L148.974 47H146.171L145.283 44.3633ZM141.372 42.2275H144.571L142.963 37.4375L141.372 42.2275ZM161.566 47H158.929L153.796 38.5801V47H151.16V34.2031H153.796L158.938 42.6406V34.2031H161.566V47ZM172.241 44.3633H167.618L166.74 47H163.936L168.699 34.2031H171.143L175.933 47H173.129L172.241 44.3633ZM168.33 42.2275H171.53L169.921 37.4375L168.33 42.2275ZM188.05 45.3828C187.575 45.9512 186.904 46.3936 186.037 46.71C185.17 47.0205 184.209 47.1758 183.154 47.1758C182.047 47.1758 181.074 46.9355 180.236 46.4551C179.404 45.9688 178.76 45.2656 178.303 44.3457C177.852 43.4258 177.62 42.3447 177.608 41.1025V40.2324C177.608 38.9551 177.822 37.8506 178.25 36.9189C178.684 35.9814 179.305 35.2666 180.113 34.7744C180.928 34.2764 181.88 34.0273 182.97 34.0273C184.487 34.0273 185.674 34.3906 186.529 35.1172C187.385 35.8379 187.892 36.8896 188.05 38.2725H185.483C185.366 37.54 185.106 37.0039 184.701 36.6641C184.303 36.3242 183.752 36.1543 183.049 36.1543C182.152 36.1543 181.47 36.4912 181.001 37.165C180.532 37.8389 180.295 38.8408 180.289 40.1709V40.9883C180.289 42.3301 180.544 43.3438 181.054 44.0293C181.564 44.7148 182.311 45.0576 183.295 45.0576C184.285 45.0576 184.991 44.8467 185.413 44.4248V42.2188H183.014V40.2764H188.05V45.3828ZM198.884 41.4541H193.821V44.8818H199.762V47H191.184V34.2031H199.745V36.3389H193.821V39.3887H198.884V41.4541ZM218.266 40.8916C218.266 42.0869 218.073 43.127 217.686 44.0117C217.299 44.8906 216.763 45.5967 216.077 46.1299L218.204 47.7998L216.526 49.2852L213.801 47.0967C213.491 47.1494 213.168 47.1758 212.834 47.1758C211.774 47.1758 210.827 46.9209 209.995 46.4111C209.163 45.9014 208.519 45.1748 208.062 44.2314C207.605 43.2822 207.373 42.1924 207.368 40.9619V40.3291C207.368 39.0693 207.593 37.9619 208.044 37.0068C208.501 36.0459 209.143 35.3105 209.969 34.8008C210.801 34.2852 211.75 34.0273 212.817 34.0273C213.883 34.0273 214.829 34.2852 215.656 34.8008C216.488 35.3105 217.129 36.0459 217.58 37.0068C218.037 37.9619 218.266 39.0664 218.266 40.3203V40.8916ZM215.594 40.3115C215.594 38.9697 215.354 37.9502 214.873 37.2529C214.393 36.5557 213.707 36.207 212.817 36.207C211.932 36.207 211.249 36.5527 210.769 37.2441C210.288 37.9297 210.045 38.9375 210.039 40.2676V40.8916C210.039 42.1982 210.28 43.2119 210.76 43.9326C211.241 44.6533 211.932 45.0137 212.834 45.0137C213.719 45.0137 214.399 44.668 214.873 43.9766C215.348 43.2793 215.588 42.2656 215.594 40.9355V40.3115ZM230.875 34.2031V42.6318C230.875 44.0322 230.436 45.1396 229.557 45.9541C228.684 46.7686 227.488 47.1758 225.971 47.1758C224.477 47.1758 223.29 46.7803 222.411 45.9893C221.532 45.1982 221.084 44.1113 221.066 42.7285V34.2031H223.703V42.6494C223.703 43.4873 223.902 44.0996 224.301 44.4863C224.705 44.8672 225.262 45.0576 225.971 45.0576C227.453 45.0576 228.206 44.2783 228.23 42.7197V34.2031H230.875ZM241.726 41.4541H236.664V44.8818H242.605V47H234.027V34.2031H242.588V36.3389H236.664V39.3887H241.726V41.4541ZM254.828 34.2031V42.6318C254.828 44.0322 254.388 45.1396 253.509 45.9541C252.636 46.7686 251.441 47.1758 249.923 47.1758C248.429 47.1758 247.243 46.7803 246.364 45.9893C245.485 45.1982 245.037 44.1113 245.019 42.7285V34.2031H247.656V42.6494C247.656 43.4873 247.855 44.0996 248.254 44.4863C248.658 44.8672 249.214 45.0576 249.923 45.0576C251.406 45.0576 252.159 44.2783 252.182 42.7197V34.2031H254.828ZM265.679 41.4541H260.617V44.8818H266.558V47H257.98V34.2031H266.54V36.3389H260.617V39.3887H265.679V41.4541Z" fill="#FC3F3F"/>
</svg>
