<svg width="136" height="64" viewBox="0 0 136 64" fill="none" xmlns="http://www.w3.org/2000/svg">
<rect width="136" height="64" rx="5" fill="#FC3F3F"/>
<path d="M60.7373 32H57.665V17.1592L53.1328 18.708V16.1055L60.3438 13.4521H60.7373V32ZM79.0267 25.4111H81.3245V27.8867H79.0267V32H75.9417V27.8867H67.9564L67.8675 26.0078L75.8402 13.5156H79.0267V25.4111ZM71.1048 25.4111H75.9417V17.6924L75.7132 18.0986L71.1048 25.4111Z" fill="white"/>
<path d="M24.3262 50.8027C24.3262 50.4277 24.1934 50.1387 23.9277 49.9355C23.666 49.7324 23.1914 49.5273 22.5039 49.3203C21.8164 49.1133 21.2695 48.8828 20.8633 48.6289C20.0859 48.1406 19.6973 47.5039 19.6973 46.7188C19.6973 46.0312 19.9766 45.4648 20.5352 45.0195C21.0977 44.5742 21.8262 44.3516 22.7207 44.3516C23.3145 44.3516 23.8438 44.4609 24.3086 44.6797C24.7734 44.8984 25.1387 45.2109 25.4043 45.6172C25.6699 46.0195 25.8027 46.4668 25.8027 46.959H24.3262C24.3262 46.5137 24.1855 46.166 23.9043 45.916C23.627 45.6621 23.2285 45.5352 22.709 45.5352C22.2246 45.5352 21.8477 45.6387 21.5781 45.8457C21.3125 46.0527 21.1797 46.3418 21.1797 46.7129C21.1797 47.0254 21.3242 47.2871 21.6133 47.498C21.9023 47.7051 22.3789 47.9082 23.043 48.1074C23.707 48.3027 24.2402 48.5273 24.6426 48.7812C25.0449 49.0312 25.3398 49.3203 25.5273 49.6484C25.7148 49.9727 25.8086 50.3535 25.8086 50.791C25.8086 51.502 25.5352 52.0684 24.9883 52.4902C24.4453 52.9082 23.707 53.1172 22.7734 53.1172C22.1562 53.1172 21.5879 53.0039 21.0684 52.7773C20.5527 52.5469 20.1504 52.2305 19.8613 51.8281C19.5762 51.4258 19.4336 50.957 19.4336 50.4219H20.916C20.916 50.9062 21.0762 51.2812 21.3965 51.5469C21.7168 51.8125 22.1758 51.9453 22.7734 51.9453C23.2891 51.9453 23.6758 51.8418 23.9336 51.6348C24.1953 51.4238 24.3262 51.1465 24.3262 50.8027ZM32.7557 49.1914H29.2518V51.8164H33.3475V53H27.7694V44.4688H33.3065V45.6641H29.2518V48.0195H32.7557V49.1914ZM39.9899 51.0137H36.6852L35.9938 53H34.4528L37.6755 44.4688H39.0055L42.2341 53H40.6872L39.9899 51.0137ZM37.1012 49.8184H39.5739L38.3376 46.2793L37.1012 49.8184ZM49.3277 45.6641H46.6675V53H45.1968V45.6641H42.5601V44.4688H49.3277V45.6641ZM61.218 48.957C61.218 49.793 61.0734 50.5273 60.7844 51.1602C60.4953 51.7891 60.0812 52.2734 59.5422 52.6133C59.007 52.9492 58.3898 53.1172 57.6906 53.1172C56.9992 53.1172 56.382 52.9492 55.8391 52.6133C55.3 52.2734 54.882 51.791 54.5852 51.166C54.2922 50.541 54.1437 49.8203 54.1398 49.0039V48.5234C54.1398 47.6914 54.2863 46.957 54.5793 46.3203C54.8762 45.6836 55.2922 45.1973 55.8273 44.8613C56.3664 44.5215 56.9836 44.3516 57.6789 44.3516C58.3742 44.3516 58.9895 44.5195 59.5246 44.8555C60.0637 45.1875 60.4797 45.668 60.7727 46.2969C61.0656 46.9219 61.2141 47.6504 61.218 48.4824V48.957ZM59.7355 48.5117C59.7355 47.5664 59.5559 46.8418 59.1965 46.3379C58.841 45.834 58.3352 45.582 57.6789 45.582C57.0383 45.582 56.5363 45.834 56.173 46.3379C55.8137 46.8379 55.6301 47.5469 55.6223 48.4648V48.957C55.6223 49.8945 55.8039 50.6191 56.1672 51.1309C56.5344 51.6426 57.0422 51.8984 57.6906 51.8984C58.3469 51.8984 58.8508 51.6484 59.2023 51.1484C59.5578 50.6484 59.7355 49.918 59.7355 48.957V48.5117ZM69.8643 50.2227C69.7784 51.1328 69.4424 51.8438 68.8565 52.3555C68.2705 52.8633 67.4912 53.1172 66.5186 53.1172C65.8389 53.1172 65.2393 52.957 64.7198 52.6367C64.2041 52.3125 63.8057 51.8535 63.5245 51.2598C63.2432 50.666 63.0967 49.9766 63.085 49.1914V48.3945C63.085 47.5898 63.2276 46.8809 63.5127 46.2676C63.7979 45.6543 64.2061 45.1816 64.7373 44.8496C65.2725 44.5176 65.8897 44.3516 66.5889 44.3516C67.5303 44.3516 68.2881 44.6074 68.8623 45.1191C69.4366 45.6309 69.7705 46.3535 69.8643 47.2871H68.3877C68.3174 46.6738 68.1377 46.2324 67.8487 45.9629C67.5635 45.6895 67.1436 45.5527 66.5889 45.5527C65.9444 45.5527 65.4483 45.7891 65.1006 46.2617C64.7569 46.7305 64.5811 47.4199 64.5733 48.3301V49.0859C64.5733 50.0078 64.7373 50.7109 65.0655 51.1953C65.3975 51.6797 65.8819 51.9219 66.5186 51.9219C67.1006 51.9219 67.5381 51.791 67.8311 51.5293C68.1241 51.2676 68.3096 50.832 68.3877 50.2227H69.8643ZM78.3641 50.2227C78.2782 51.1328 77.9423 51.8438 77.3563 52.3555C76.7704 52.8633 75.9911 53.1172 75.0184 53.1172C74.3387 53.1172 73.7391 52.957 73.2196 52.6367C72.704 52.3125 72.3055 51.8535 72.0243 51.2598C71.743 50.666 71.5966 49.9766 71.5848 49.1914V48.3945C71.5848 47.5898 71.7274 46.8809 72.0126 46.2676C72.2977 45.6543 72.7059 45.1816 73.2372 44.8496C73.7723 44.5176 74.3895 44.3516 75.0887 44.3516C76.0302 44.3516 76.788 44.6074 77.3622 45.1191C77.9364 45.6309 78.2704 46.3535 78.3641 47.2871H76.8876C76.8173 46.6738 76.6376 46.2324 76.3485 45.9629C76.0634 45.6895 75.6434 45.5527 75.0887 45.5527C74.4442 45.5527 73.9481 45.7891 73.6005 46.2617C73.2567 46.7305 73.0809 47.4199 73.0731 48.3301V49.0859C73.0731 50.0078 73.2372 50.7109 73.5653 51.1953C73.8973 51.6797 74.3817 51.9219 75.0184 51.9219C75.6005 51.9219 76.038 51.791 76.3309 51.5293C76.6239 51.2676 76.8095 50.832 76.8876 50.2227H78.3641ZM86.5945 44.4688V50.1699C86.5945 51.0762 86.3034 51.7949 85.7214 52.3262C85.1433 52.8535 84.3718 53.1172 83.407 53.1172C82.4304 53.1172 81.655 52.8574 81.0808 52.3379C80.5066 51.8145 80.2195 51.0898 80.2195 50.1641V44.4688H81.696V50.1758C81.696 50.7461 81.8405 51.1816 82.1296 51.4824C82.4187 51.7832 82.8445 51.9336 83.407 51.9336C84.5476 51.9336 85.1179 51.332 85.1179 50.1289V44.4688H86.5945ZM90.3248 49.8301V53H88.8423V44.4688H92.106C93.0591 44.4688 93.815 44.7168 94.3736 45.2129C94.9361 45.709 95.2173 46.3652 95.2173 47.1816C95.2173 48.0176 94.942 48.668 94.3912 49.1328C93.8443 49.5977 93.0767 49.8301 92.0884 49.8301H90.3248ZM90.3248 48.6406H92.106C92.6334 48.6406 93.0357 48.5176 93.313 48.2715C93.5904 48.0215 93.7291 47.6621 93.7291 47.1934C93.7291 46.7324 93.5884 46.3652 93.3072 46.0918C93.0259 45.8145 92.6392 45.6719 92.147 45.6641H90.3248V48.6406ZM98.7426 53H97.266V44.4688H98.7426V53ZM106.211 49.1914H102.707V51.8164H106.803V53H101.225V44.4688H106.762V45.6641H102.707V48.0195H106.211V49.1914ZM108.67 53V44.4688H111.19C111.943 44.4688 112.611 44.6367 113.193 44.9727C113.779 45.3086 114.232 45.7852 114.553 46.4023C114.873 47.0195 115.033 47.7266 115.033 48.5234V48.9512C115.033 49.7598 114.871 50.4707 114.547 51.084C114.227 51.6973 113.768 52.1699 113.17 52.502C112.576 52.834 111.895 53 111.125 53H108.67ZM110.152 45.6641V51.8164H111.119C111.897 51.8164 112.492 51.5742 112.906 51.0898C113.324 50.6016 113.537 49.9023 113.545 48.9922V48.5176C113.545 47.5918 113.344 46.8848 112.941 46.3965C112.539 45.9082 111.955 45.6641 111.19 45.6641H110.152Z" fill="white" fill-opacity="0.53"/>
</svg>
