<svg width="100" height="41" viewBox="0 0 100 41" fill="none" xmlns="http://www.w3.org/2000/svg">
<rect x="0.5" y="0.5" width="99" height="40" rx="20" fill="white" stroke="#C4C4C4"/>
<rect width="41" height="41" rx="20.5" fill="#FF2E2E"/>
<path d="M74.2578 24.6075C74.2578 23.9669 74.0781 23.4591 73.7188 23.0841C73.3672 22.7013 72.7656 22.3497 71.9141 22.0294C71.0625 21.7091 70.3281 21.3927 69.7109 21.0802C69.0938 20.7599 68.5625 20.3966 68.1172 19.9904C67.6797 19.5763 67.3359 19.0919 67.0859 18.5372C66.8438 17.9825 66.7227 17.3224 66.7227 16.5568C66.7227 15.2365 67.1445 14.1544 67.9883 13.3107C68.832 12.4669 69.9531 11.9747 71.3516 11.8341V9.32629H73.2266V11.8693C74.6094 12.0646 75.6914 12.6427 76.4727 13.6036C77.2539 14.5568 77.6445 15.795 77.6445 17.3185H74.2578C74.2578 16.381 74.0625 15.6818 73.6719 15.2208C73.2891 14.7521 72.7734 14.5177 72.125 14.5177C71.4844 14.5177 70.9883 14.7013 70.6367 15.0685C70.2852 15.4279 70.1094 15.9279 70.1094 16.5685C70.1094 17.1622 70.2812 17.6388 70.625 17.9982C70.9688 18.3575 71.6055 18.7247 72.5352 19.0997C73.4727 19.4747 74.2422 19.8302 74.8438 20.1661C75.4453 20.4943 75.9531 20.8693 76.3672 21.2911C76.7812 21.7052 77.0977 22.1818 77.3164 22.7208C77.5352 23.2521 77.6445 23.8732 77.6445 24.5841C77.6445 25.9122 77.2305 26.9904 76.4023 27.8185C75.5742 28.6466 74.4336 29.1349 72.9805 29.2833V31.6154H71.1172V29.295C69.5156 29.1232 68.2734 28.5568 67.3906 27.5958C66.5156 26.6271 66.0781 25.3419 66.0781 23.7404H69.4648C69.4648 24.67 69.6836 25.3849 70.1211 25.8849C70.5664 26.3771 71.2031 26.6232 72.0312 26.6232C72.7188 26.6232 73.2617 26.4435 73.6602 26.0841C74.0586 25.7169 74.2578 25.2247 74.2578 24.6075Z" fill="#FC3F3F"/>
</svg>
