<svg width="177" height="63" viewBox="0 0 177 63" fill="none" xmlns="http://www.w3.org/2000/svg">
<g filter="url(#filter0_d_43_1369)">
<rect x="4" y="4" width="169" height="55" rx="5" fill="#FC3F3F"/>
<rect x="4.5" y="4.5" width="168" height="54" rx="4.5" stroke="#FC3F3F"/>
<path d="M67.0156 37V25.625H70.5156C71.5156 25.625 72.4089 25.8516 73.1953 26.3047C73.987 26.7526 74.6042 27.3932 75.0469 28.2266C75.4896 29.0547 75.7109 29.9974 75.7109 31.0547V31.5781C75.7109 32.6354 75.4922 33.5755 75.0547 34.3984C74.6224 35.2214 74.0104 35.8594 73.2188 36.3125C72.4271 36.7656 71.5339 36.9948 70.5391 37H67.0156ZM69.3594 27.5234V35.1172H70.4922C71.4089 35.1172 72.1094 34.8177 72.5938 34.2188C73.0781 33.6198 73.3255 32.763 73.3359 31.6484V31.0469C73.3359 29.8906 73.0964 29.0156 72.6172 28.4219C72.138 27.8229 71.4375 27.5234 70.5156 27.5234H69.3594ZM87.6456 31.5703C87.6456 32.6901 87.4477 33.6719 87.0519 34.5156C86.656 35.3594 86.0883 36.0104 85.3488 36.4688C84.6144 36.9271 83.7706 37.1562 82.8175 37.1562C81.8748 37.1562 81.0336 36.9297 80.2941 36.4766C79.5545 36.0234 78.9816 35.3776 78.5753 34.5391C78.1691 33.6953 77.9633 32.7266 77.9581 31.6328V31.0703C77.9581 29.9505 78.1586 28.9661 78.5597 28.1172C78.9659 27.263 79.5363 26.6094 80.2706 26.1562C81.0102 25.6979 81.854 25.4688 82.8019 25.4688C83.7498 25.4688 84.5909 25.6979 85.3253 26.1562C86.0649 26.6094 86.6352 27.263 87.0363 28.1172C87.4425 28.9661 87.6456 29.9479 87.6456 31.0625V31.5703ZM85.2706 31.0547C85.2706 29.862 85.0571 28.9557 84.63 28.3359C84.2029 27.7161 83.5935 27.4062 82.8019 27.4062C82.0154 27.4062 81.4086 27.7135 80.9816 28.3281C80.5545 28.9375 80.3383 29.8333 80.3331 31.0156V31.5703C80.3331 32.7318 80.5467 33.6328 80.9738 34.2734C81.4008 34.9141 82.0154 35.2344 82.8175 35.2344C83.604 35.2344 84.2081 34.9271 84.63 34.3125C85.0519 33.6927 85.2654 32.7917 85.2706 31.6094V31.0547ZM99.4788 37H97.135L92.5725 29.5156V37H90.2288V25.625H92.5725L97.1428 33.125V25.625H99.4788V37ZM109.249 32.0703H104.749V35.1172H110.031V37H102.406V25.625H110.015V27.5234H104.749V30.2344H109.249V32.0703Z" fill="white"/>
</g>
<defs>
<filter id="filter0_d_43_1369" x="0" y="0" width="177" height="63" filterUnits="userSpaceOnUse" color-interpolation-filters="sRGB">
<feFlood flood-opacity="0" result="BackgroundImageFix"/>
<feColorMatrix in="SourceAlpha" type="matrix" values="0 0 0 0 0 0 0 0 0 0 0 0 0 0 0 0 0 0 127 0" result="hardAlpha"/>
<feOffset/>
<feGaussianBlur stdDeviation="2"/>
<feColorMatrix type="matrix" values="0 0 0 0 0 0 0 0 0 0 0 0 0 0 0 0 0 0 0.25 0"/>
<feBlend mode="normal" in2="BackgroundImageFix" result="effect1_dropShadow_43_1369"/>
<feBlend mode="normal" in="SourceGraphic" in2="effect1_dropShadow_43_1369" result="shape"/>
</filter>
</defs>
</svg>
