<svg width="37" height="37" viewBox="0 0 37 37" fill="none" xmlns="http://www.w3.org/2000/svg">
<circle cx="18.5" cy="18.5" r="18.5" fill="white"/>
<path d="M22.6416 25H13.8701V23.2598L18.0098 18.8477C18.5781 18.2266 18.9971 17.6846 19.2666 17.2217C19.542 16.7588 19.6797 16.3193 19.6797 15.9033C19.6797 15.335 19.5361 14.8896 19.249 14.5674C18.9619 14.2393 18.5518 14.0752 18.0186 14.0752C17.4443 14.0752 16.9902 14.2744 16.6562 14.6729C16.3281 15.0654 16.1641 15.584 16.1641 16.2285H13.6152C13.6152 15.4492 13.7998 14.7373 14.1689 14.0928C14.5439 13.4482 15.0713 12.9443 15.751 12.5811C16.4307 12.2119 17.2012 12.0273 18.0625 12.0273C19.3809 12.0273 20.4033 12.3438 21.1299 12.9766C21.8623 13.6094 22.2285 14.5029 22.2285 15.6572C22.2285 16.29 22.0645 16.9346 21.7363 17.5908C21.4082 18.2471 20.8457 19.0117 20.0488 19.8848L17.1396 22.9521H22.6416V25Z" fill="#FC3F3F"/>
</svg>
