<svg width="177" height="63" viewBox="0 0 177 63" fill="none" xmlns="http://www.w3.org/2000/svg">
<g filter="url(#filter0_d_27_2629)">
<rect x="4" y="4" width="169" height="55" rx="5" fill="white"/>
<rect x="4.5" y="4.5" width="168" height="54" rx="4.5" stroke="#FC3F3F"/>
<path d="M35.5781 25.625L38.5 33.875L41.4062 25.625H44.4844V37H42.1328V33.8906L42.3672 28.5234L39.2969 37H37.6875L34.625 28.5312L34.8594 33.8906V37H32.5156V25.625H35.5781ZM54.255 32.0703H49.755V35.1172H55.0363V37H47.4113V25.625H55.0206V27.5234H49.755V30.2344H54.255V32.0703ZM61.5022 32.8359H59.635V37H57.2913V25.625H61.5178C62.8616 25.625 63.898 25.9245 64.6272 26.5234C65.3564 27.1224 65.7209 27.9688 65.7209 29.0625C65.7209 29.8385 65.5517 30.487 65.2131 31.0078C64.8798 31.5234 64.372 31.9349 63.6897 32.2422L66.1506 36.8906V37H63.635L61.5022 32.8359ZM59.635 30.9375H61.5256C62.1142 30.9375 62.5699 30.7891 62.8928 30.4922C63.2157 30.1901 63.3772 29.776 63.3772 29.25C63.3772 28.7135 63.2235 28.2917 62.9163 27.9844C62.6142 27.6771 62.148 27.5234 61.5178 27.5234H59.635V30.9375ZM77.39 35.5625C76.9681 36.0677 76.3718 36.4609 75.6009 36.7422C74.8301 37.0182 73.9759 37.1562 73.0384 37.1562C72.0541 37.1562 71.1895 36.9427 70.4447 36.5156C69.7051 36.0833 69.1322 35.4583 68.7259 34.6406C68.3249 33.8229 68.1192 32.862 68.1087 31.7578V30.9844C68.1087 29.849 68.2989 28.8672 68.6791 28.0391C69.0645 27.2057 69.6166 26.5703 70.3353 26.1328C71.0593 25.6901 71.9056 25.4688 72.8744 25.4688C74.2233 25.4688 75.278 25.7917 76.0384 26.4375C76.7989 27.0781 77.2494 28.013 77.39 29.2422H75.1087C75.0046 28.5911 74.7728 28.1146 74.4134 27.8125C74.0593 27.5104 73.5697 27.3594 72.9447 27.3594C72.1478 27.3594 71.541 27.6589 71.1244 28.2578C70.7077 28.8568 70.4968 29.7474 70.4916 30.9297V31.6562C70.4916 32.849 70.7181 33.75 71.1712 34.3594C71.6244 34.9688 72.2884 35.2734 73.1634 35.2734C74.0436 35.2734 74.6712 35.0859 75.0462 34.7109V32.75H72.9134V31.0234H77.39V35.5625ZM87.02 32.0703H82.52V35.1172H87.8013V37H80.1763V25.625H87.7856V27.5234H82.52V30.2344H87.02V32.0703ZM103.014 27.5234H99.53V37H97.1862V27.5234H93.7487V25.625H103.014V27.5234ZM110.723 34.6562H106.613L105.832 37H103.34L107.574 25.625H109.746L114.004 37H111.512L110.723 34.6562ZM107.246 32.7578H110.09L108.66 28.5L107.246 32.7578ZM115.946 37V25.625H119.931C121.311 25.625 122.358 25.8906 123.071 26.4219C123.785 26.9479 124.142 27.7214 124.142 28.7422C124.142 29.2995 123.998 29.7917 123.712 30.2188C123.425 30.6406 123.027 30.9505 122.517 31.1484C123.1 31.2943 123.558 31.5885 123.892 32.0312C124.23 32.474 124.399 33.0156 124.399 33.6562C124.399 34.75 124.05 35.5781 123.353 36.1406C122.655 36.7031 121.66 36.9896 120.368 37H115.946ZM118.29 32.0469V35.1172H120.298C120.85 35.1172 121.28 34.987 121.587 34.7266C121.899 34.4609 122.056 34.0964 122.056 33.6328C122.056 32.5911 121.517 32.0625 120.438 32.0469H118.29ZM118.29 30.3906H120.024C121.207 30.3698 121.798 29.8984 121.798 28.9766C121.798 28.4609 121.647 28.0911 121.345 27.8672C121.048 27.638 120.576 27.5234 119.931 27.5234H118.29V30.3906ZM129.389 35.1172H134.365V37H127.045V25.625H129.389V35.1172ZM143.441 32.0703H138.941V35.1172H144.222V37H136.597V25.625H144.206V27.5234H138.941V30.2344H143.441V32.0703Z" fill="#FC3F3F"/>
</g>
<defs>
<filter id="filter0_d_27_2629" x="0" y="0" width="177" height="63" filterUnits="userSpaceOnUse" color-interpolation-filters="sRGB">
<feFlood flood-opacity="0" result="BackgroundImageFix"/>
<feColorMatrix in="SourceAlpha" type="matrix" values="0 0 0 0 0 0 0 0 0 0 0 0 0 0 0 0 0 0 127 0" result="hardAlpha"/>
<feOffset/>
<feGaussianBlur stdDeviation="2"/>
<feColorMatrix type="matrix" values="0 0 0 0 0 0 0 0 0 0 0 0 0 0 0 0 0 0 0.25 0"/>
<feBlend mode="normal" in2="BackgroundImageFix" result="effect1_dropShadow_27_2629"/>
<feBlend mode="normal" in="SourceGraphic" in2="effect1_dropShadow_27_2629" result="shape"/>
</filter>
</defs>
</svg>
