<svg width="26" height="31" viewBox="0 0 26 31" fill="none" xmlns="http://www.w3.org/2000/svg">
<g clip-path="url(#clip0_1_1083)">
<path d="M12.7101 27.458C8.81405 27.458 4.91839 27.458 1.02305 27.458C0.844804 27.4558 0.669757 27.4104 0.512976 27.3255C0.356196 27.2407 0.22238 27.119 0.123053 26.971C0.0478998 26.8713 0.00431217 26.7513 -0.00210326 26.6265C-0.0085187 26.5018 0.0225321 26.378 0.0870538 26.271C0.179054 26.092 0.281053 25.918 0.387053 25.745C1.01905 24.705 1.66506 23.673 2.28206 22.623C2.54147 22.1455 2.77513 21.6545 2.98205 21.152C3.25147 20.4891 3.44309 19.7971 3.55306 19.09C3.69377 18.3075 3.75574 17.5129 3.73805 16.718C3.73805 15.997 3.76405 15.276 3.73805 14.554C3.69227 13.5138 3.83733 12.474 4.16605 11.486C4.32639 10.9533 4.54716 10.4406 4.82406 9.95802C5.07538 9.46891 5.39046 9.01529 5.76106 8.60902C5.99206 8.38902 6.16105 8.10903 6.41005 7.89203C6.87733 7.46309 7.38313 7.07812 7.92106 6.74202C8.49757 6.38433 9.115 6.09728 9.76005 5.88702C9.81079 5.87629 9.85632 5.84849 9.88907 5.80829C9.92181 5.76808 9.93981 5.71789 9.94005 5.66603C9.96748 5.34929 9.96748 5.03076 9.94005 4.71402C9.91056 4.2003 9.92629 3.68499 9.98705 3.17402C10.0475 2.69096 10.2674 2.2419 10.6121 1.89802C10.891 1.60724 11.2357 1.38769 11.6171 1.25787C11.9986 1.12805 12.4056 1.09175 12.8041 1.15202C13.3258 1.1893 13.8194 1.4026 14.2041 1.75702C14.5045 2.01307 14.7493 2.32795 14.9233 2.68225C15.0974 3.03654 15.197 3.42274 15.2161 3.81701C15.2331 4.45301 15.1511 5.08903 15.2271 5.72403C15.2253 5.78133 15.2435 5.83744 15.2786 5.88284C15.3136 5.92824 15.3632 5.9601 15.4191 5.97302C15.8145 6.08199 16.1937 6.24271 16.5471 6.45102C17.0352 6.72858 17.503 7.04036 17.9471 7.38402C18.2351 7.62202 18.5161 7.86802 18.7791 8.13002C19.1707 8.50934 19.5206 8.92939 19.8231 9.38302C20.2278 9.9587 20.5634 10.58 20.8231 11.234C21.2277 12.2799 21.4279 13.3937 21.4131 14.515C21.3781 15.463 21.3841 16.415 21.4131 17.363C21.4267 18.0279 21.4882 18.691 21.5971 19.347C21.6749 19.9112 21.8154 20.465 22.0161 20.998C22.2477 21.6486 22.5393 22.2763 22.8871 22.873C23.3131 23.521 23.6621 24.215 24.1051 24.854C24.3871 25.26 24.5751 25.725 24.8501 26.138C24.9211 26.245 24.9831 26.358 25.0501 26.469C25.1207 26.5658 25.1619 26.6809 25.1687 26.8006C25.1755 26.9202 25.1476 27.0392 25.0883 27.1434C25.0291 27.2475 24.941 27.3323 24.8347 27.3876C24.7284 27.4429 24.6083 27.4663 24.4891 27.455C23.6501 27.464 22.8111 27.455 21.9721 27.46H12.7101V27.458Z" fill="white"/>
<path d="M12.471 28.4051H16.052C16.1253 28.4004 16.1988 28.4004 16.272 28.4051C16.3314 28.4056 16.3896 28.4223 16.4402 28.4534C16.4908 28.4845 16.532 28.5288 16.5594 28.5815C16.5867 28.6343 16.5992 28.6935 16.5954 28.7528C16.5917 28.8121 16.5718 28.8692 16.538 28.9181C16.1816 29.5352 15.6946 30.0669 15.111 30.476C14.656 30.7919 14.1359 31.0017 13.589 31.0901C12.5223 31.3101 11.4118 31.1292 10.47 30.5821C9.79451 30.1843 9.22478 29.6296 8.80902 28.9651C8.74102 28.8561 8.66902 28.75 8.59802 28.643C8.56002 28.585 8.52403 28.5241 8.56003 28.4561C8.59603 28.3881 8.66502 28.4021 8.72502 28.4021H12.472L12.471 28.4051Z" fill="white"/>
</g>
<defs>
<clipPath id="clip0_1_1083">
<rect width="26" height="31" fill="white"/>
</clipPath>
</defs>
</svg>
