<svg width="177" height="63" viewBox="0 0 177 63" fill="none" xmlns="http://www.w3.org/2000/svg">
<g opacity="0.2" filter="url(#filter0_d_43_1371)">
<rect x="4" y="4" width="169" height="55" rx="5" fill="white"/>
<rect x="4.5" y="4.5" width="168" height="54" rx="4.5" stroke="#74BF63"/>
<path d="M48.3594 31.5703C48.3594 32.6901 48.1615 33.6719 47.7656 34.5156C47.3698 35.3594 46.8021 36.0104 46.0625 36.4688C45.3281 36.9271 44.4844 37.1562 43.5312 37.1562C42.5885 37.1562 41.7474 36.9297 41.0078 36.4766C40.2682 36.0234 39.6953 35.3776 39.2891 34.5391C38.8828 33.6953 38.6771 32.7266 38.6719 31.6328V31.0703C38.6719 29.9505 38.8724 28.9661 39.2734 28.1172C39.6797 27.263 40.25 26.6094 40.9844 26.1562C41.724 25.6979 42.5677 25.4688 43.5156 25.4688C44.4635 25.4688 45.3047 25.6979 46.0391 26.1562C46.7786 26.6094 47.349 27.263 47.75 28.1172C48.1562 28.9661 48.3594 29.9479 48.3594 31.0625V31.5703ZM45.9844 31.0547C45.9844 29.862 45.7708 28.9557 45.3438 28.3359C44.9167 27.7161 44.3073 27.4062 43.5156 27.4062C42.7292 27.4062 42.1224 27.7135 41.6953 28.3281C41.2682 28.9375 41.0521 29.8333 41.0469 31.0156V31.5703C41.0469 32.7318 41.2604 33.6328 41.6875 34.2734C42.1146 34.9141 42.7292 35.2344 43.5312 35.2344C44.3177 35.2344 44.9219 34.9271 45.3438 34.3125C45.7656 33.6927 45.9792 32.7917 45.9844 31.6094V31.0547ZM53.2863 32.9922V37H50.9425V25.625H55.38C56.2342 25.625 56.9842 25.7812 57.63 26.0938C58.281 26.4062 58.781 26.8516 59.13 27.4297C59.479 28.0026 59.6534 28.6562 59.6534 29.3906C59.6534 30.5052 59.2706 31.3854 58.505 32.0312C57.7446 32.6719 56.6899 32.9922 55.3409 32.9922H53.2863ZM53.2863 31.0938H55.38C55.9998 31.0938 56.4711 30.9479 56.7941 30.6562C57.1222 30.3646 57.2863 29.9479 57.2863 29.4062C57.2863 28.849 57.1222 28.3984 56.7941 28.0547C56.4659 27.7109 56.0128 27.5339 55.4347 27.5234H53.2863V31.0938ZM68.9944 32.0703H64.4944V35.1172H69.7756V37H62.1506V25.625H69.76V27.5234H64.4944V30.2344H68.9944V32.0703ZM81.2806 37H78.9369L74.3744 29.5156V37H72.0306V25.625H74.3744L78.9447 33.125V25.625H81.2806V37ZM97.1656 27.5234H93.6813V37H91.3375V27.5234H87.9V25.625H97.1656V27.5234ZM104.874 34.6562H100.764L99.9831 37H97.4909L101.725 25.625H103.897L108.155 37H105.663L104.874 34.6562ZM101.397 32.7578H104.241L102.811 28.5L101.397 32.7578ZM110.098 37V25.625H114.082C115.462 25.625 116.509 25.8906 117.223 26.4219C117.936 26.9479 118.293 27.7214 118.293 28.7422C118.293 29.2995 118.15 29.7917 117.863 30.2188C117.577 30.6406 117.178 30.9505 116.668 31.1484C117.251 31.2943 117.709 31.5885 118.043 32.0312C118.381 32.474 118.551 33.0156 118.551 33.6562C118.551 34.75 118.202 35.5781 117.504 36.1406C116.806 36.7031 115.811 36.9896 114.519 37H110.098ZM112.441 32.0469V35.1172H114.449C115.001 35.1172 115.431 34.987 115.738 34.7266C116.051 34.4609 116.207 34.0964 116.207 33.6328C116.207 32.5911 115.668 32.0625 114.59 32.0469H112.441ZM112.441 30.3906H114.176C115.358 30.3698 115.949 29.8984 115.949 28.9766C115.949 28.4609 115.798 28.0911 115.496 27.8672C115.199 27.638 114.728 27.5234 114.082 27.5234H112.441V30.3906ZM123.54 35.1172H128.517V37H121.196V25.625H123.54V35.1172ZM137.592 32.0703H133.092V35.1172H138.373V37H130.748V25.625H138.357V27.5234H133.092V30.2344H137.592V32.0703Z" fill="#74BF63"/>
</g>
<defs>
<filter id="filter0_d_43_1371" x="0" y="0" width="177" height="63" filterUnits="userSpaceOnUse" color-interpolation-filters="sRGB">
<feFlood flood-opacity="0" result="BackgroundImageFix"/>
<feColorMatrix in="SourceAlpha" type="matrix" values="0 0 0 0 0 0 0 0 0 0 0 0 0 0 0 0 0 0 127 0" result="hardAlpha"/>
<feOffset/>
<feGaussianBlur stdDeviation="2"/>
<feColorMatrix type="matrix" values="0 0 0 0 0 0 0 0 0 0 0 0 0 0 0 0 0 0 0.25 0"/>
<feBlend mode="normal" in2="BackgroundImageFix" result="effect1_dropShadow_43_1371"/>
<feBlend mode="normal" in="SourceGraphic" in2="effect1_dropShadow_43_1371" result="shape"/>
</filter>
</defs>
</svg>
