<svg width="63" height="38" viewBox="0 0 63 38" fill="none" xmlns="http://www.w3.org/2000/svg">
<path d="M0 6C0 2.68629 2.68629 0 6 0H63V38H6C2.68629 38 0 35.3137 0 32V6Z" fill="#FC3F3F"/>
<path d="M18.7412 20.3018V24H17.0117V14.0469H20.8193C21.9313 14.0469 22.8132 14.3363 23.4648 14.915C24.1211 15.4938 24.4492 16.2594 24.4492 17.2119C24.4492 18.1872 24.1279 18.946 23.4854 19.4883C22.8473 20.0306 21.9518 20.3018 20.7988 20.3018H18.7412ZM18.7412 18.9141H20.8193C21.4346 18.9141 21.904 18.7705 22.2275 18.4834C22.5511 18.1917 22.7129 17.7725 22.7129 17.2256C22.7129 16.6878 22.5488 16.2594 22.2207 15.9404C21.8926 15.6169 21.4414 15.4505 20.8672 15.4414H18.7412V18.9141ZM31.0913 21.6826H27.2358L26.4292 24H24.6313L28.3911 14.0469H29.9429L33.7095 24H31.9048L31.0913 21.6826ZM27.7212 20.2881H30.6059L29.1636 16.1592L27.7212 20.2881ZM37.4394 24H35.7168V14.0469H37.4394V24ZM40.3354 24V14.0469H43.2748C44.1544 14.0469 44.9337 14.2428 45.6127 14.6348C46.2963 15.0267 46.825 15.5827 47.1987 16.3027C47.5724 17.0228 47.7592 17.8477 47.7592 18.7773V19.2764C47.7592 20.2197 47.5701 21.0492 47.1918 21.7646C46.8181 22.4801 46.2827 23.0316 45.5854 23.4189C44.8927 23.8063 44.0974 24 43.1996 24H40.3354ZM42.0649 15.4414V22.6191H43.1928C44.0997 22.6191 44.7947 22.3366 45.2778 21.7715C45.7654 21.2018 46.0138 20.3861 46.0229 19.3242V18.7705C46.0229 17.6904 45.7882 16.8656 45.3188 16.2959C44.8494 15.7262 44.1681 15.4414 43.2748 15.4414H42.0649Z" fill="white"/>
</svg>
