<svg width="84" height="32" viewBox="0 0 84 32" fill="none" xmlns="http://www.w3.org/2000/svg">
<rect x="0.5" y="0.5" width="83" height="31" rx="4.5" fill="white"/>
<rect x="0.5" y="0.5" width="83" height="31" rx="4.5" stroke="#C4C4C4"/>
<path d="M23.7911 17.0659V20.5H22.1852V11.2578H25.7208C26.7534 11.2578 27.5722 11.5265 28.1773 12.064C28.7867 12.6014 29.0914 13.3123 29.0914 14.1968C29.0914 15.1024 28.7931 15.807 28.1964 16.3105C27.6039 16.8141 26.7724 17.0659 25.7018 17.0659H23.7911ZM23.7911 15.7773H25.7208C26.2921 15.7773 26.728 15.644 27.0284 15.3774C27.3289 15.1066 27.4791 14.7173 27.4791 14.2095C27.4791 13.7101 27.3268 13.3123 27.0221 13.0161C26.7174 12.7157 26.2984 12.5612 25.7652 12.5527H23.7911V15.7773ZM34.6624 15.041C34.4592 15.0072 34.2498 14.9902 34.0339 14.9902C33.3272 14.9902 32.8512 15.2611 32.6057 15.8027V20.5H31.0632V13.6318H32.5359L32.574 14.3999C32.9464 13.8032 33.4627 13.5049 34.1228 13.5049C34.3429 13.5049 34.5248 13.5345 34.6687 13.5938L34.6624 15.041ZM35.8344 17.0024C35.8344 16.3296 35.9677 15.7244 36.2343 15.187C36.5009 14.6453 36.8754 14.2306 37.3578 13.9429C37.8403 13.6509 38.3946 13.5049 39.0209 13.5049C39.9477 13.5049 40.6988 13.8032 41.2743 14.3999C41.8541 14.9966 42.1672 15.7879 42.2138 16.7739L42.2201 17.1357C42.2201 17.8128 42.089 18.418 41.8266 18.9512C41.5684 19.4844 41.196 19.897 40.7094 20.189C40.227 20.481 39.6684 20.627 39.0336 20.627C38.0645 20.627 37.288 20.3053 36.704 19.6621C36.1243 19.0146 35.8344 18.1535 35.8344 17.0786V17.0024ZM37.3769 17.1357C37.3769 17.8424 37.5229 18.3968 37.8149 18.7988C38.1069 19.1966 38.5131 19.3955 39.0336 19.3955C39.5541 19.3955 39.9583 19.1924 40.246 18.7861C40.538 18.3799 40.684 17.7853 40.684 17.0024C40.684 16.3084 40.5338 15.7583 40.2333 15.3521C39.9371 14.9458 39.533 14.7427 39.0209 14.7427C38.5173 14.7427 38.1174 14.9437 37.8212 15.3457C37.525 15.7435 37.3769 16.3402 37.3769 17.1357ZM44.649 20.5V14.7744H43.6016V13.6318H44.649V13.1621C44.6532 12.6247 44.7675 12.1634 44.9918 11.7783C45.2161 11.3932 45.5334 11.1034 45.9439 10.9087C46.3544 10.714 46.8474 10.6167 47.4229 10.6167C47.7615 10.6167 48.0852 10.6527 48.3941 10.7246C48.7073 10.7965 49.031 10.8875 49.3653 10.9976L49.1304 12.2734C48.5465 12.0703 48.0133 11.9688 47.5308 11.9688C47.0611 11.9688 46.7205 12.0724 46.5089 12.2798C46.2973 12.4829 46.1915 12.7897 46.1915 13.2002V13.6318H47.5435V14.7744H46.1915V20.5H44.649ZM50.0953 20.5H48.5528V13.6318H50.0953V20.5ZM54.1619 20.5H52.6194V10.75H54.1619V20.5ZM59.5868 20.627C58.6093 20.627 57.8158 20.3201 57.2064 19.7065C56.6013 19.0887 56.2987 18.2677 56.2987 17.2437V17.0532C56.2987 16.3677 56.4299 15.7562 56.6923 15.2188C56.9589 14.6771 57.3313 14.256 57.8095 13.9556C58.2877 13.6551 58.8209 13.5049 59.4091 13.5049C60.3443 13.5049 61.0658 13.8032 61.5736 14.3999C62.0857 14.9966 62.3417 15.8408 62.3417 16.9326V17.5547H57.8539C57.9005 18.1217 58.0888 18.5703 58.4188 18.9004C58.7532 19.2305 59.1721 19.3955 59.6757 19.3955C60.3824 19.3955 60.9579 19.1099 61.4022 18.5386L62.2338 19.332C61.9587 19.7425 61.5906 20.062 61.1293 20.2905C60.6723 20.5148 60.1581 20.627 59.5868 20.627ZM59.4027 14.7427C58.9796 14.7427 58.6368 14.8908 58.3744 15.187C58.1163 15.4832 57.9512 15.8958 57.8793 16.4248H60.8183V16.3105C60.7844 15.7943 60.6469 15.4049 60.4057 15.1426C60.1645 14.876 59.8301 14.7427 59.4027 14.7427Z" fill="#9B9B9B"/>
</svg>
