<svg width="387" height="81" viewBox="0 0 387 81" fill="none" xmlns="http://www.w3.org/2000/svg">
<rect x="0.5" y="0.5" width="386" height="80" rx="4.5" fill="white"/>
<rect x="0.5" y="0.5" width="386" height="80" rx="4.5" stroke="#F8AE00"/>
<path d="M117.549 47H114.912L109.779 38.5801V47H107.143V34.2031H109.779L114.921 42.6406V34.2031H117.549V47ZM128.541 41.4541H123.478V44.8818H129.42V47H120.842V34.2031H129.402V36.3389H123.478V39.3887H128.541V41.4541ZM141.923 43.3086L143.646 34.2031H146.274L143.435 47H140.781L138.698 38.4395L136.615 47H133.96L131.122 34.2031H133.75L135.481 43.291L137.59 34.2031H139.823L141.923 43.3086ZM158.906 42.3154H156.806V47H154.169V34.2031H158.924C160.436 34.2031 161.602 34.54 162.422 35.2139C163.242 35.8877 163.652 36.8398 163.652 38.0703C163.652 38.9434 163.462 39.6729 163.081 40.2588C162.706 40.8389 162.135 41.3018 161.367 41.6475L164.136 46.877V47H161.306L158.906 42.3154ZM156.806 40.1797H158.933C159.595 40.1797 160.107 40.0127 160.471 39.6787C160.834 39.3389 161.016 38.873 161.016 38.2812C161.016 37.6777 160.843 37.2031 160.497 36.8574C160.157 36.5117 159.633 36.3389 158.924 36.3389H156.806V40.1797ZM174.354 41.4541H169.292V44.8818H175.233V47H166.655V34.2031H175.216V36.3389H169.292V39.3887H174.354V41.4541ZM184.406 43.6426C184.406 43.1445 184.23 42.7637 183.878 42.5C183.527 42.2305 182.894 41.9492 181.98 41.6562C181.066 41.3574 180.342 41.0645 179.809 40.7773C178.356 39.9922 177.629 38.9346 177.629 37.6045C177.629 36.9131 177.823 36.2979 178.21 35.7588C178.602 35.2139 179.162 34.7891 179.888 34.4844C180.621 34.1797 181.441 34.0273 182.349 34.0273C183.263 34.0273 184.078 34.1943 184.793 34.5283C185.507 34.8564 186.061 35.3223 186.454 35.9258C186.852 36.5293 187.051 37.2148 187.051 37.9824H184.415C184.415 37.3965 184.23 36.9424 183.861 36.6201C183.492 36.292 182.973 36.1279 182.305 36.1279C181.661 36.1279 181.16 36.2656 180.802 36.541C180.445 36.8105 180.266 37.168 180.266 37.6133C180.266 38.0293 180.474 38.3779 180.89 38.6592C181.312 38.9404 181.93 39.2041 182.745 39.4502C184.245 39.9014 185.337 40.4609 186.023 41.1289C186.709 41.7969 187.051 42.6289 187.051 43.625C187.051 44.7324 186.632 45.6025 185.794 46.2354C184.957 46.8623 183.829 47.1758 182.411 47.1758C181.426 47.1758 180.53 46.9971 179.721 46.6396C178.913 46.2764 178.294 45.7812 177.867 45.1543C177.445 44.5273 177.234 43.8008 177.234 42.9746H179.879C179.879 44.3867 180.723 45.0928 182.411 45.0928C183.038 45.0928 183.527 44.9668 183.878 44.7148C184.23 44.457 184.406 44.0996 184.406 43.6426ZM197.534 41.4541H192.471V44.8818H198.412V47H189.834V34.2031H198.395V36.3389H192.471V39.3887H197.534V41.4541ZM205.687 42.3154H203.586V47H200.949V34.2031H205.704C207.216 34.2031 208.382 34.54 209.202 35.2139C210.023 35.8877 210.433 36.8398 210.433 38.0703C210.433 38.9434 210.242 39.6729 209.861 40.2588C209.486 40.8389 208.915 41.3018 208.148 41.6475L210.916 46.877V47H208.086L205.687 42.3154ZM203.586 40.1797H205.713C206.375 40.1797 206.888 40.0127 207.251 39.6787C207.614 39.3389 207.796 38.873 207.796 38.2812C207.796 37.6777 207.623 37.2031 207.277 36.8574C206.938 36.5117 206.413 36.3389 205.704 36.3389H203.586V40.1797ZM217.988 43.8271L220.889 34.2031H223.824L219.368 47H216.617L212.179 34.2031H215.105L217.988 43.8271ZM232.584 44.3633H227.961L227.082 47H224.278L229.042 34.2031H231.485L236.275 47H233.471L232.584 44.3633ZM228.672 42.2275H231.872L230.263 37.4375L228.672 42.2275ZM247.038 36.3389H243.119V47H240.482V36.3389H236.615V34.2031H247.038V36.3389ZM252.344 47H249.707V34.2031H252.344V47ZM266.298 40.8916C266.298 42.1514 266.075 43.2559 265.63 44.2051C265.184 45.1543 264.546 45.8867 263.714 46.4023C262.888 46.918 261.938 47.1758 260.866 47.1758C259.806 47.1758 258.859 46.9209 258.027 46.4111C257.195 45.9014 256.551 45.1748 256.094 44.2314C255.637 43.2822 255.405 42.1924 255.399 40.9619V40.3291C255.399 39.0693 255.625 37.9619 256.076 37.0068C256.533 36.0459 257.175 35.3105 258.001 34.8008C258.833 34.2852 259.782 34.0273 260.849 34.0273C261.915 34.0273 262.861 34.2852 263.687 34.8008C264.519 35.3105 265.161 36.0459 265.612 37.0068C266.069 37.9619 266.298 39.0664 266.298 40.3203V40.8916ZM263.626 40.3115C263.626 38.9697 263.386 37.9502 262.905 37.2529C262.425 36.5557 261.739 36.207 260.849 36.207C259.964 36.207 259.281 36.5527 258.801 37.2441C258.32 37.9297 258.077 38.9375 258.071 40.2676V40.8916C258.071 42.1982 258.311 43.2119 258.792 43.9326C259.272 44.6533 259.964 45.0137 260.866 45.0137C261.751 45.0137 262.431 44.668 262.905 43.9766C263.38 43.2793 263.62 42.2656 263.626 40.9355V40.3115ZM279.61 47H276.973L271.84 38.5801V47H269.204V34.2031H271.84L276.982 42.6406V34.2031H279.61V47Z" fill="#FFA64D"/>
</svg>
