<svg width="177" height="63" viewBox="0 0 177 63" fill="none" xmlns="http://www.w3.org/2000/svg">
<g opacity="0.2" filter="url(#filter0_d_43_1367)">
<rect x="4" y="4" width="169" height="55" rx="5" fill="white"/>
<rect x="4.5" y="4.5" width="168" height="54" rx="4.5" stroke="#F8AE00"/>
<path d="M36.7266 32.8359H34.8594V37H32.5156V25.625H36.7422C38.0859 25.625 39.1224 25.9245 39.8516 26.5234C40.5807 27.1224 40.9453 27.9688 40.9453 29.0625C40.9453 29.8385 40.776 30.487 40.4375 31.0078C40.1042 31.5234 39.5964 31.9349 38.9141 32.2422L41.375 36.8906V37H38.8594L36.7266 32.8359ZM34.8594 30.9375H36.75C37.3385 30.9375 37.7943 30.7891 38.1172 30.4922C38.4401 30.1901 38.6016 29.776 38.6016 29.25C38.6016 28.7135 38.4479 28.2917 38.1406 27.9844C37.8385 27.6771 37.3724 27.5234 36.7422 27.5234H34.8594V30.9375ZM50.4581 32.0703H45.9581V35.1172H51.2394V37H43.6144V25.625H51.2238V27.5234H45.9581V30.2344H50.4581V32.0703ZM59.3928 34.0156C59.3928 33.5729 59.2366 33.2344 58.9241 33C58.6116 32.7604 58.0491 32.5104 57.2366 32.25C56.4241 31.9844 55.7808 31.724 55.3069 31.4688C54.0152 30.7708 53.3694 29.8307 53.3694 28.6484C53.3694 28.0339 53.5413 27.487 53.885 27.0078C54.234 26.5234 54.7314 26.1458 55.3772 25.875C56.0282 25.6042 56.7574 25.4688 57.5647 25.4688C58.3772 25.4688 59.1011 25.6172 59.7366 25.9141C60.372 26.2057 60.8642 26.6198 61.2131 27.1562C61.5673 27.6927 61.7444 28.3021 61.7444 28.9844H59.4006C59.4006 28.4635 59.2366 28.0599 58.9084 27.7734C58.5803 27.4818 58.1194 27.3359 57.5256 27.3359C56.9527 27.3359 56.5074 27.4583 56.1897 27.7031C55.872 27.9427 55.7131 28.2604 55.7131 28.6562C55.7131 29.026 55.898 29.3359 56.2678 29.5859C56.6428 29.8359 57.1923 30.0703 57.9163 30.2891C59.2496 30.6901 60.2209 31.1875 60.8303 31.7812C61.4397 32.375 61.7444 33.1146 61.7444 34C61.7444 34.9844 61.372 35.7578 60.6272 36.3203C59.8824 36.8776 58.8798 37.1562 57.6194 37.1562C56.7444 37.1562 55.9475 36.9974 55.2288 36.6797C54.51 36.3568 53.9605 35.9167 53.5803 35.3594C53.2053 34.8021 53.0178 34.1562 53.0178 33.4219H55.3694C55.3694 34.6771 56.1194 35.3047 57.6194 35.3047C58.1767 35.3047 58.6116 35.1927 58.9241 34.9688C59.2366 34.7396 59.3928 34.4219 59.3928 34.0156ZM71.0619 32.0703H66.5619V35.1172H71.8431V37H64.2181V25.625H71.8275V27.5234H66.5619V30.2344H71.0619V32.0703ZM78.3091 32.8359H76.4419V37H74.0981V25.625H78.3247C79.6684 25.625 80.7049 25.9245 81.4341 26.5234C82.1632 27.1224 82.5278 27.9688 82.5278 29.0625C82.5278 29.8385 82.3585 30.487 82.02 31.0078C81.6867 31.5234 81.1789 31.9349 80.4966 32.2422L82.9575 36.8906V37H80.4419L78.3091 32.8359ZM76.4419 30.9375H78.3325C78.921 30.9375 79.3768 30.7891 79.6997 30.4922C80.0226 30.1901 80.1841 29.776 80.1841 29.25C80.1841 28.7135 80.0304 28.2917 79.7231 27.9844C79.421 27.6771 78.9549 27.5234 78.3247 27.5234H76.4419V30.9375ZM89.2438 34.1797L91.8219 25.625H94.4313L90.4703 37H88.025L84.0797 25.625H86.6813L89.2438 34.1797ZM102.217 34.6562H98.1081L97.3269 37H94.8347L99.0691 25.625H101.241L105.499 37H103.007L102.217 34.6562ZM98.7409 32.7578H101.585L100.155 28.5L98.7409 32.7578ZM115.066 27.5234H111.582V37H109.238V27.5234H105.801V25.625H115.066V27.5234ZM119.782 37H117.438V25.625H119.782V37ZM132.186 31.5703C132.186 32.6901 131.988 33.6719 131.592 34.5156C131.196 35.3594 130.628 36.0104 129.889 36.4688C129.154 36.9271 128.311 37.1562 127.357 37.1562C126.415 37.1562 125.574 36.9297 124.834 36.4766C124.094 36.0234 123.522 35.3776 123.115 34.5391C122.709 33.6953 122.503 32.7266 122.498 31.6328V31.0703C122.498 29.9505 122.699 28.9661 123.1 28.1172C123.506 27.263 124.076 26.6094 124.811 26.1562C125.55 25.6979 126.394 25.4688 127.342 25.4688C128.29 25.4688 129.131 25.6979 129.865 26.1562C130.605 26.6094 131.175 27.263 131.576 28.1172C131.982 28.9661 132.186 29.9479 132.186 31.0625V31.5703ZM129.811 31.0547C129.811 29.862 129.597 28.9557 129.17 28.3359C128.743 27.7161 128.134 27.4062 127.342 27.4062C126.555 27.4062 125.949 27.7135 125.522 28.3281C125.094 28.9375 124.878 29.8333 124.873 31.0156V31.5703C124.873 32.7318 125.087 33.6328 125.514 34.2734C125.941 34.9141 126.555 35.2344 127.357 35.2344C128.144 35.2344 128.748 34.9271 129.17 34.3125C129.592 33.6927 129.805 32.7917 129.811 31.6094V31.0547ZM144.019 37H141.675L137.113 29.5156V37H134.769V25.625H137.113L141.683 33.125V25.625H144.019V37Z" fill="#F8AE00"/>
</g>
<defs>
<filter id="filter0_d_43_1367" x="0" y="0" width="177" height="63" filterUnits="userSpaceOnUse" color-interpolation-filters="sRGB">
<feFlood flood-opacity="0" result="BackgroundImageFix"/>
<feColorMatrix in="SourceAlpha" type="matrix" values="0 0 0 0 0 0 0 0 0 0 0 0 0 0 0 0 0 0 127 0" result="hardAlpha"/>
<feOffset/>
<feGaussianBlur stdDeviation="2"/>
<feColorMatrix type="matrix" values="0 0 0 0 0 0 0 0 0 0 0 0 0 0 0 0 0 0 0.25 0"/>
<feBlend mode="normal" in2="BackgroundImageFix" result="effect1_dropShadow_43_1367"/>
<feBlend mode="normal" in="SourceGraphic" in2="effect1_dropShadow_43_1367" result="shape"/>
</filter>
</defs>
</svg>
