<svg width="124" height="39" viewBox="0 0 124 39" fill="none" xmlns="http://www.w3.org/2000/svg">
<rect x="0.5" y="0.5" width="123" height="38" rx="4.5" fill="white" stroke="#FC3F3F"/>
<path d="M25.2188 22.1797L27.7969 13.625H30.4062L26.4453 25H24L20.0547 13.625H22.6562L25.2188 22.1797ZM34.5988 25H32.3331V16.5469H34.5988V25ZM32.2003 14.3594C32.2003 14.0208 32.3123 13.7422 32.5363 13.5234C32.7654 13.3047 33.0753 13.1953 33.4659 13.1953C33.8514 13.1953 34.1586 13.3047 34.3878 13.5234C34.617 13.7422 34.7316 14.0208 34.7316 14.3594C34.7316 14.7031 34.6144 14.9844 34.38 15.2031C34.1508 15.4219 33.8461 15.5312 33.4659 15.5312C33.0857 15.5312 32.7784 15.4219 32.5441 15.2031C32.3149 14.9844 32.2003 14.7031 32.2003 14.3594ZM41.2366 25.1562C39.997 25.1562 38.9866 24.776 38.2053 24.0156C37.4293 23.2552 37.0413 22.2422 37.0413 20.9766V20.7578C37.0413 19.9089 37.2053 19.151 37.5334 18.4844C37.8616 17.8125 38.3251 17.2969 38.9241 16.9375C39.5282 16.5729 40.2157 16.3906 40.9866 16.3906C42.1428 16.3906 43.0517 16.7552 43.7131 17.4844C44.3798 18.2135 44.7131 19.2474 44.7131 20.5859V21.5078H39.3303C39.4032 22.0599 39.622 22.5026 39.9866 22.8359C40.3564 23.1693 40.8225 23.3359 41.385 23.3359C42.2548 23.3359 42.9345 23.0208 43.4241 22.3906L44.5334 23.6328C44.1949 24.112 43.7366 24.487 43.1584 24.7578C42.5803 25.0234 41.9397 25.1562 41.2366 25.1562ZM40.9788 18.2188C40.5308 18.2188 40.1663 18.3698 39.885 18.6719C39.609 18.974 39.4319 19.4062 39.3538 19.9688H42.4944V19.7891C42.484 19.2891 42.3485 18.9036 42.0881 18.6328C41.8277 18.3568 41.4579 18.2188 40.9788 18.2188ZM54.2337 21.9297L55.3431 16.5469H57.5228L55.3666 25H53.4759L51.8744 19.6797L50.2728 25H48.39L46.2337 16.5469H48.4134L49.515 21.9219L51.0619 16.5469H52.6947L54.2337 21.9297ZM66.5094 16.5469L66.5797 17.4922C67.1786 16.7578 67.9885 16.3906 69.0094 16.3906C70.0979 16.3906 70.8453 16.8203 71.2516 17.6797C71.8453 16.8203 72.6917 16.3906 73.7906 16.3906C74.7073 16.3906 75.3896 16.6589 75.8375 17.1953C76.2854 17.7266 76.5094 18.5286 76.5094 19.6016V25H74.2438V19.6094C74.2438 19.1302 74.15 18.7812 73.9625 18.5625C73.775 18.3385 73.4443 18.2266 72.9703 18.2266C72.2932 18.2266 71.8245 18.5495 71.5641 19.1953L71.5719 25H69.3141V19.6172C69.3141 19.1276 69.2177 18.7734 69.025 18.5547C68.8323 18.3359 68.5042 18.2266 68.0406 18.2266C67.4 18.2266 66.9365 18.4922 66.65 19.0234V25H64.3922V16.5469H66.5094ZM78.78 20.6953C78.78 19.8568 78.9415 19.1094 79.2644 18.4531C79.5873 17.7969 80.0508 17.2891 80.655 16.9297C81.2644 16.5703 81.9701 16.3906 82.7722 16.3906C83.9128 16.3906 84.8425 16.7396 85.5612 17.4375C86.2852 18.1354 86.6889 19.0833 86.7722 20.2812L86.7878 20.8594C86.7878 22.1562 86.4258 23.1979 85.7019 23.9844C84.9779 24.7656 84.0066 25.1562 82.7878 25.1562C81.5691 25.1562 80.5951 24.7656 79.8659 23.9844C79.142 23.2031 78.78 22.1406 78.78 20.7969V20.6953ZM81.0378 20.8594C81.0378 21.6615 81.1889 22.276 81.4909 22.7031C81.793 23.125 82.2253 23.3359 82.7878 23.3359C83.3347 23.3359 83.7618 23.1276 84.0691 22.7109C84.3764 22.2891 84.53 21.6172 84.53 20.6953C84.53 19.9089 84.3764 19.2995 84.0691 18.8672C83.7618 18.4349 83.3295 18.2188 82.7722 18.2188C82.2201 18.2188 81.793 18.4349 81.4909 18.8672C81.1889 19.2943 81.0378 19.9583 81.0378 20.8594ZM93.8084 18.6641C93.5011 18.6224 93.2303 18.6016 92.9959 18.6016C92.1418 18.6016 91.5819 18.8906 91.3163 19.4688V25H89.0584V16.5469H91.1913L91.2538 17.5547C91.7069 16.7786 92.3345 16.3906 93.1366 16.3906C93.3866 16.3906 93.6209 16.4245 93.8397 16.4922L93.8084 18.6641ZM99.5166 25.1562C98.277 25.1562 97.2666 24.776 96.4853 24.0156C95.7093 23.2552 95.3213 22.2422 95.3213 20.9766V20.7578C95.3213 19.9089 95.4853 19.151 95.8134 18.4844C96.1416 17.8125 96.6051 17.2969 97.2041 16.9375C97.8082 16.5729 98.4957 16.3906 99.2666 16.3906C100.423 16.3906 101.332 16.7552 101.993 17.4844C102.66 18.2135 102.993 19.2474 102.993 20.5859V21.5078H97.6103C97.6832 22.0599 97.902 22.5026 98.2666 22.8359C98.6364 23.1693 99.1025 23.3359 99.665 23.3359C100.535 23.3359 101.214 23.0208 101.704 22.3906L102.813 23.6328C102.475 24.112 102.017 24.487 101.438 24.7578C100.86 25.0234 100.22 25.1562 99.5166 25.1562ZM99.2588 18.2188C98.8108 18.2188 98.4463 18.3698 98.165 18.6719C97.889 18.974 97.7119 19.4062 97.6338 19.9688H100.774V19.7891C100.764 19.2891 100.629 18.9036 100.368 18.6328C100.108 18.3568 99.7379 18.2188 99.2588 18.2188Z" fill="#FC3F3F"/>
</svg>
